<?xml version="1.0" standalone="no"?>
<!DOCTYPE svg PUBLIC "-//W3C//DTD SVG 20010904//EN"
 "http://www.w3.org/TR/2001/REC-SVG-20010904/DTD/svg10.dtd">
<svg version="1.0" xmlns="http://www.w3.org/2000/svg"
 width="600.000000pt" height="600.000000pt" viewBox="0 0 600.000000 600.000000"
 preserveAspectRatio="xMidYMid meet">
<metadata>
Created by potrace 1.11, written by Peter Selinger 2001-2013
</metadata>
<g transform="translate(0.000000,600.000000) scale(0.100000,-0.100000)"
fill="#000000" stroke="none">
<path d="M3312 5988 c-7 -7 -12 -18 -12 -26 0 -9 7 -6 18 8 21 26 42 20 42
-12 0 -19 -4 -20 -52 -14 -75 10 -80 10 -109 2 -21 -6 -27 -3 -37 16 -10 22
-11 22 -11 2 -2 -38 -76 -46 -120 -13 -36 26 -105 36 -127 18 -11 -9 -57 -13
-157 -15 -284 -4 -321 -12 -333 -73 -5 -23 -13 -30 -53 -40 -64 -16 -115 -60
-137 -118 l-18 -47 -13 30 c-12 29 -12 29 -13 3 0 -14 5 -30 11 -36 15 -15 3
-33 -22 -33 -26 0 -69 -43 -69 -70 0 -26 13 -26 25 2 6 12 16 24 24 26 11 4
12 -2 6 -24 -14 -56 -28 -149 -27 -184 4 -120 2 -133 -18 -155 -22 -23 -27
-88 -10 -115 8 -12 10 -9 10 12 0 25 1 26 30 15 17 -6 30 -15 30 -18 0 -4 12
-21 26 -38 20 -24 22 -31 10 -31 -9 0 -15 -3 -14 -7 2 -5 -6 -22 -16 -39 -26
-43 -72 -56 -127 -38 -55 19 -103 9 -149 -32 -43 -39 -46 -40 -54 -18 -8 22
12 57 30 50 9 -3 12 -1 9 4 -11 18 -28 11 -66 -26 -36 -35 -40 -36 -68 -25
-16 7 -45 14 -63 16 -18 2 -54 9 -80 16 -36 10 -53 10 -72 1 -25 -11 -37 -42
-16 -42 6 0 9 6 8 13 -2 7 10 13 30 15 35 4 44 -13 13 -23 -10 -3 -31 -18 -46
-33 -20 -20 -35 -26 -60 -24 -35 4 -65 -24 -65 -60 0 -10 -6 -18 -14 -18 -23
0 -83 -75 -90 -113 -4 -21 -12 -37 -19 -37 -7 0 -4 -6 6 -14 9 -7 17 -17 17
-22 0 -5 11 -26 25 -47 l26 -37 -23 -42 c-18 -34 -23 -59 -23 -118 0 -86 22
-137 77 -186 30 -27 33 -35 34 -90 2 -55 0 -61 -16 -57 -23 6 -43 -27 -29 -48
7 -11 9 -9 9 9 0 28 8 28 40 -3 23 -22 26 -31 20 -68 -3 -23 -3 -57 1 -75 7
-35 -5 -32 -14 3 -4 15 -5 14 -6 -7 -1 -16 7 -32 17 -40 11 -7 30 -31 44 -53
14 -22 42 -55 61 -74 20 -19 39 -47 42 -62 7 -31 45 -66 79 -75 28 -7 49 -86
33 -121 -12 -26 -1 -45 13 -23 7 12 14 9 40 -15 16 -16 30 -32 30 -37 0 -12
-34 -10 -48 4 -9 9 -12 9 -12 0 0 -6 11 -19 25 -28 20 -13 31 -15 50 -6 18 8
26 8 35 -4 14 -16 40 -19 40 -4 0 6 -4 10 -10 10 -5 0 -10 5 -10 10 0 6 9 10
20 10 13 0 20 -7 20 -20 0 -11 -4 -20 -8 -20 -20 0 -43 -27 -36 -43 8 -21 24
-22 24 -2 0 8 5 15 11 15 6 0 8 -13 3 -37 -3 -21 -5 -45 -4 -53 1 -8 4 -133 6
-278 l5 -263 -25 -29 c-37 -45 -94 -238 -82 -278 5 -13 -6 -39 -34 -80 -22
-34 -40 -63 -40 -66 0 -2 -15 -27 -34 -56 -58 -87 -177 -335 -183 -379 -5 -39
-3 -46 33 -82 24 -25 60 -48 97 -61 51 -18 58 -24 52 -42 -3 -12 -8 -187 -11
-391 -5 -326 -8 -379 -25 -443 -11 -40 -23 -103 -26 -140 -6 -68 -5 -68 28
-96 30 -25 39 -28 86 -23 38 4 53 2 53 -7 0 -6 12 -26 27 -44 56 -65 153 -49
193 32 11 23 20 49 20 57 0 8 18 21 39 30 57 24 77 59 62 108 -17 57 -46 88
-99 105 -26 9 -62 25 -79 36 -31 18 -33 23 -33 75 l0 56 48 -39 c89 -74 217
-130 384 -167 70 -15 81 -21 121 -64 36 -39 47 -59 57 -107 16 -82 20 -94 31
-94 23 0 5 -33 -33 -60 -41 -30 -78 -80 -78 -107 0 -9 -16 -13 -47 -13 -35 0
-44 -3 -33 -10 8 -5 30 -10 48 -10 19 0 32 -5 32 -12 0 -7 3 -23 6 -35 6 -22
4 -23 -72 -24 -91 -2 -59 -16 39 -18 32 0 80 -8 108 -17 51 -17 151 -16 317 4
80 10 106 22 47 22 -32 0 -36 2 -25 15 9 11 33 15 84 16 96 1 135 17 44 18
-38 1 -68 3 -68 6 0 3 15 20 33 38 32 32 32 33 25 102 -6 65 -5 71 17 90 22
19 23 25 18 108 -5 75 -4 87 10 87 11 0 17 -13 21 -45 3 -25 9 -65 12 -90 3
-24 9 -47 15 -50 5 -4 9 -36 8 -73 -2 -107 0 -115 42 -141 21 -14 36 -27 34
-30 -3 -3 32 -18 77 -34 67 -23 99 -29 168 -28 47 0 101 5 120 11 19 5 93 11
165 11 112 1 122 3 75 10 -30 5 -79 6 -109 3 l-53 -5 22 28 c17 22 35 30 83
39 l62 12 -62 1 -63 1 0 33 c0 42 -32 94 -72 115 -17 9 -42 27 -57 39 -25 20
-25 22 -8 40 10 12 17 36 17 59 0 27 10 57 33 94 29 49 37 56 82 68 184 49
241 68 333 113 71 34 120 66 157 102 47 46 55 50 59 32 3 -11 1 -24 -4 -29
-16 -16 -12 -99 6 -124 15 -21 15 -25 -1 -42 -10 -11 -49 -31 -87 -46 -70 -27
-89 -44 -109 -102 -16 -48 3 -86 56 -112 35 -17 44 -27 49 -55 4 -19 22 -50
40 -70 29 -30 40 -35 79 -35 49 0 100 32 112 70 5 17 16 20 66 20 50 0 64 4
84 25 30 29 32 67 9 170 -8 39 -17 82 -21 98 -4 21 -2 27 11 27 21 0 27 31 24
125 -3 72 -5 81 -25 90 -22 9 -23 15 -23 135 0 117 -12 333 -26 480 l-6 66 76
38 c42 20 84 48 92 62 16 23 15 28 -30 122 -56 115 -181 326 -236 400 -22 28
-37 58 -34 65 6 16 -40 187 -62 229 -8 16 -25 34 -38 39 l-23 11 -7 323 c-6
257 -4 328 6 344 17 28 31 27 23 -1 -6 -23 -6 -23 10 -3 9 11 14 29 11 41 -7
28 20 64 49 64 14 0 29 9 35 20 12 22 1 27 -18 8 -20 -20 -23 -3 -7 35 8 20
15 47 15 59 0 17 3 19 9 9 14 -22 23 5 10 32 -10 22 -7 29 34 69 50 51 85 130
91 210 3 44 8 53 31 66 l28 14 -6 -33 -7 -34 20 24 c11 13 20 31 20 40 0 15
35 69 100 153 11 14 20 34 20 45 0 10 12 29 25 42 14 13 25 28 25 35 0 6 13
19 29 29 16 9 31 26 34 37 7 26 3 25 -29 -7 -17 -17 -29 -23 -32 -15 -4 13 26
98 52 147 27 51 21 98 -19 145 -29 35 -34 48 -33 86 2 47 11 55 27 27 10 -17
10 -17 11 0 0 10 -8 20 -17 24 -25 8 -63 53 -63 72 0 9 -7 28 -14 43 -13 25
-13 29 4 38 10 5 27 10 37 10 17 1 17 1 0 11 -11 6 -31 9 -47 6 -26 -6 -28 -3
-34 33 -3 22 -19 54 -35 72 -16 19 -34 54 -41 78 -8 30 -27 60 -56 90 -42 44
-43 46 -33 84 13 49 5 59 -11 12 -14 -44 -30 -47 -30 -6 0 33 -26 52 -40 30
-9 -14 -15 -6 -24 32 -8 37 -59 92 -97 108 -28 12 -30 16 -25 49 3 20 2 52 -3
71 l-9 35 -1 -46 c-1 -25 -7 -54 -15 -64 -12 -17 -15 -15 -35 31 -12 27 -33
66 -47 86 -25 36 -26 37 -8 67 15 25 16 34 6 56 -18 38 -54 51 -107 37 -40
-11 -47 -9 -99 19 -39 21 -56 37 -56 50 0 59 -53 78 -104 38 -15 -12 -28 -20
-29 -18 -52 80 -125 136 -155 121 -30 -16 -72 -23 -72 -12 0 11 47 26 70 21
12 -2 13 0 2 10 -9 10 -21 11 -54 2 -52 -14 -109 7 -101 38 10 38 -37 65 -65
37z m-318 -48 c14 -5 26 -14 26 -20 0 -14 -43 -12 -74 3 -44 23 -4 37 48 17z
m-485 -28 c-15 -9 -36 -28 -48 -42 -19 -24 -20 -24 -21 -4 0 30 39 61 80 63 8
1 3 -7 -11 -17z m1281 -159 c0 -10 -6 -13 -16 -9 -9 3 -24 6 -35 6 -26 0 -24
15 4 27 25 12 47 0 47 -24z m254 -89 c27 -10 38 -41 24 -64 -18 -28 -29 -25
-67 14 -31 32 -32 35 -14 45 21 12 35 13 57 5z m-1860 -285 c-10 -16 -24 -9
-24 12 0 18 2 19 15 9 8 -7 12 -16 9 -21z m-37 -215 c-8 -8 -37 8 -37 20 0 7
6 18 12 24 10 10 15 7 21 -13 5 -15 7 -28 4 -31z m-81 -208 c27 -21 17 -24
-55 -18 -58 4 -63 6 -46 18 24 18 76 18 101 0z m-248 -55 c-15 -5 -21 7 -13
26 7 17 8 17 15 -2 4 -11 3 -22 -2 -24z m336 23 c9 -22 7 -34 -3 -34 -12 0
-41 29 -41 41 0 16 38 10 44 -7z m2406 -62 c0 -44 -25 -17 -28 29 -2 43 -2 43
13 19 8 -14 14 -35 15 -48z m-3077 -18 c13 -13 -13 -42 -33 -37 -20 5 -26 23
-13 36 8 9 38 9 46 1z m3187 -234 c0 -11 -2 -20 -5 -20 -2 0 -9 9 -15 20 -9
16 -8 20 5 20 8 0 15 -9 15 -20z m-1525 -80 c-3 -5 -1 -10 4 -10 6 0 11 5 11
10 0 6 5 10 12 10 21 0 -18 -32 -44 -36 -12 -2 -33 -6 -45 -10 -14 -4 -23 -2
-23 5 0 5 6 8 13 5 7 -2 24 4 37 16 24 21 46 27 35 10z m-635 -31 c-6 -11 -16
-16 -22 -13 -6 4 -8 3 -4 -4 4 -7 -2 -10 -14 -9 -18 1 -19 3 -6 13 9 6 13 14
9 18 -4 4 0 4 10 0 12 -4 17 -1 17 11 0 9 5 13 10 10 7 -4 7 -13 0 -26z m795
11 c21 -14 25 -20 13 -20 -10 0 -18 5 -18 10 0 6 -5 10 -11 10 -5 0 -8 -4 -5
-8 2 -4 -12 -5 -32 -3 l-37 6 35 4 c33 5 33 5 -15 11 l-50 7 45 1 c30 1 55 -5
75 -18z m-755 -12 c0 15 26 16 36 0 5 -7 2 -9 -8 -5 -9 3 -19 3 -22 -1 -10 -9
-36 -11 -36 -3 0 15 14 21 22 9 6 -10 8 -10 8 0z m85 2 c13 -6 15 -9 5 -9 -8
0 -22 4 -30 9 -18 12 -2 12 25 0z m172 -6 c-3 -3 -12 -4 -19 -1 -8 3 -5 6 6 6
11 1 17 -2 13 -5z m48 -4 c-3 -5 -14 -10 -23 -10 -15 0 -15 2 -2 10 20 13 33
13 25 0z m192 4 c-3 -3 -12 -4 -19 -1 -8 3 -5 6 6 6 11 1 17 -2 13 -5z m-382
-14 c-3 -5 -12 -10 -18 -10 -7 0 -6 4 3 10 19 12 23 12 15 0z m262 4 c-3 -3
-12 -4 -19 -1 -8 3 -5 6 6 6 11 1 17 -2 13 -5z m263 -11 c0 -6 5 -15 12 -19 8
-5 9 -2 4 11 -5 14 -4 16 7 7 8 -7 17 -9 20 -6 4 4 18 8 32 10 22 2 24 0 14
-12 -6 -8 -9 -18 -5 -21 4 -4 12 -1 17 7 9 12 10 12 5 -3 -5 -15 -2 -17 13
-12 14 4 23 0 30 -14 6 -11 18 -27 27 -35 17 -17 10 -19 -21 -6 -11 5 -14 9
-7 9 7 1 10 6 6 12 -4 8 -9 7 -15 -2 -4 -7 -11 -10 -16 -6 -4 5 -1 12 7 17 8
5 11 12 7 17 -5 4 -12 1 -17 -6 -7 -12 -11 -12 -24 2 -10 9 -24 13 -34 10 -15
-6 -15 -5 1 11 23 23 16 31 -14 15 l-23 -12 28 -24 c15 -13 32 -21 37 -18 5 4
9 2 9 -3 0 -16 79 -43 108 -36 21 4 24 3 12 -6 -11 -8 11 -10 90 -8 103 2 106
2 133 -25 28 -29 36 -43 15 -31 -7 4 -8 3 -4 -5 4 -6 12 -8 18 -5 7 5 9 1 5
-9 -4 -11 -1 -17 7 -17 8 0 13 12 14 30 0 17 -3 28 -7 26 -4 -3 -8 1 -8 8 0 7
6 13 13 13 8 0 12 -17 11 -51 -2 -44 1 -52 23 -63 14 -7 36 -14 50 -17 22 -5
25 -10 27 -53 1 -61 5 -83 12 -83 3 0 7 -11 7 -25 l2 -25 -20 25 c-11 14 -24
22 -30 19 -6 -4 -5 -10 3 -16 11 -8 11 -9 -1 -5 -8 2 -14 11 -14 20 1 9 -4 13
-12 10 -7 -3 -29 5 -49 17 -39 24 -125 50 -168 50 -15 0 -39 7 -52 16 -15 10
-32 13 -42 9 -10 -5 -56 -16 -103 -26 -103 -22 -239 -88 -287 -140 -37 -40
-51 -43 -76 -17 -15 15 -15 17 0 23 10 3 14 3 10 -1 -8 -9 25 -34 36 -27 5 3
-6 16 -24 29 -36 27 -44 29 -33 13 10 -16 -29 6 -46 25 -7 9 -18 16 -25 16 -7
0 -15 7 -19 15 -3 8 -12 15 -21 15 -9 0 -30 7 -46 16 -40 20 -58 24 -149 36
-41 5 -88 13 -104 18 -21 7 -36 5 -55 -4 -14 -8 -59 -24 -99 -37 -46 -14 -99
-40 -143 -71 -70 -49 -71 -50 -85 -29 -9 12 -22 21 -30 21 -16 0 -19 36 -3 46
7 4 9 0 5 -13 -5 -14 0 -23 17 -30 27 -12 27 -11 29 69 2 43 3 46 21 36 15 -8
18 -7 12 3 -6 9 -3 11 8 6 20 -8 77 41 77 66 0 10 4 16 9 13 10 -6 34 70 26
84 -3 5 -1 11 4 15 6 3 8 12 5 20 -4 8 1 18 10 21 22 8 20 25 -1 18 -16 -5
-16 -4 0 6 18 11 18 13 1 31 -9 10 -13 19 -8 19 11 0 39 -41 36 -52 -4 -16 39
2 71 30 14 12 15 18 5 25 -9 6 -8 7 4 3 10 -3 20 -1 23 4 4 6 18 10 33 10 17
0 22 -3 15 -8 -18 -12 47 -33 91 -30 20 1 36 5 36 8 0 4 21 7 48 9 26 1 49 7
51 12 1 6 8 3 15 -6 16 -22 66 -32 163 -31 67 1 86 5 100 20 17 18 17 18 -12
11 -16 -3 -27 -3 -22 1 11 11 79 15 72 4 -3 -6 1 -7 9 -4 9 3 14 10 11 14 -7
11 10 16 56 15 23 0 39 -5 39 -12z m1528 -34 c-3 -33 -4 -33 -8 8 -3 23 -2 39
3 34 5 -5 7 -24 5 -42z m-2283 31 c3 -5 1 -10 -4 -10 -6 0 -11 5 -11 10 0 6 2
10 4 10 3 0 8 -4 11 -10z m305 0 c-8 -5 -19 -10 -25 -10 -5 0 -3 5 5 10 8 5
20 10 25 10 6 0 3 -5 -5 -10z m-165 -18 c-3 -3 -11 0 -18 7 -9 10 -8 11 6 5
10 -3 15 -9 12 -12z m398 11 c-7 -2 -19 -2 -25 0 -7 3 -2 5 12 5 14 0 19 -2
13 -5z m407 3 c0 -3 -4 -8 -10 -11 -5 -3 -10 -1 -10 4 0 6 5 11 10 11 6 0 10
-2 10 -4z m-960 -49 c-10 -9 -11 -9 -6 0 3 6 2 14 -4 18 -5 3 -10 11 -10 16 0
6 7 3 16 -6 14 -13 14 -19 4 -28z m977 16 c-2 -15 -9 -29 -16 -31 -10 -3 -10
0 -2 17 7 11 9 21 6 21 -4 0 -3 5 0 10 11 18 16 11 12 -17z m-520 11 c-3 -3
-12 -4 -19 -1 -8 3 -5 6 6 6 11 1 17 -2 13 -5z m-533 -23 c2 -3 -3 -13 -12
-21 -14 -13 -15 -12 -9 3 7 20 -4 22 -21 5 -9 -9 -15 -9 -23 -1 -8 8 -7 13 2
18 8 6 10 4 4 -5 -5 -8 -3 -11 6 -8 8 3 13 10 12 16 -2 10 34 5 41 -7z m1096
-1 c-24 -15 -37 -11 -16 5 11 8 22 12 25 9 3 -3 -1 -9 -9 -14z m107 -6 c-3 -3
-12 -4 -19 -1 -8 3 -5 6 6 6 11 1 17 -2 13 -5z m73 -8 c0 -3 -4 -8 -10 -11 -5
-3 -10 -1 -10 4 0 6 5 11 10 11 6 0 10 -2 10 -4z m40 -21 c8 -9 8 -15 2 -15
-6 0 -12 6 -15 13 -3 9 -9 8 -23 -4 -13 -11 -25 -14 -39 -9 -18 8 -17 9 7 9
15 1 30 6 33 11 9 14 21 12 35 -5z m-1425 -42 c-3 -26 -9 -50 -11 -53 -6 -6
-3 81 3 93 11 20 14 2 8 -40z m1198 40 c-7 -2 -21 -2 -30 0 -10 3 -4 5 12 5
17 0 24 -2 18 -5z m100 -20 c-13 -2 -35 -2 -50 0 -16 2 -5 4 22 4 28 0 40 -2
28 -4z m107 -3 c0 -5 -5 -10 -11 -10 -5 0 -7 5 -4 10 3 6 8 10 11 10 2 0 4 -4
4 -10z m81 -12 c11 -21 11 -22 -4 -9 -10 7 -17 17 -17 22 0 15 9 10 21 -13z
m23 -44 c3 -8 2 -12 -4 -9 -6 3 -10 10 -10 16 0 14 7 11 14 -7z m-1506 -49
c-3 -3 -9 2 -12 12 -6 14 -5 15 5 6 7 -7 10 -15 7 -18z m1568 -20 c1 -8 -2
-15 -7 -15 -5 0 -9 10 -9 22 0 23 12 17 16 -7z m-71 5 c-9 -14 8 -13 23 2 9 9
12 9 12 -4 0 -13 -27 -18 -48 -9 -5 2 8 21 14 21 3 0 2 -4 -1 -10z m-1448 -22
c2 -16 0 -17 -13 -3 -20 20 -27 19 -19 -4 11 -34 -49 -62 -66 -29 -9 16 -8 19
2 13 9 -6 11 -3 6 9 -4 10 -3 15 3 11 6 -3 10 -1 10 6 0 9 3 9 14 0 10 -9 15
-8 19 2 7 19 43 16 44 -5z m1568 2 c3 -5 -1 -10 -9 -10 -9 0 -16 5 -16 10 0 6
4 10 9 10 6 0 13 -4 16 -10z m5 -87 c-11 -17 -11 -17 -6 0 3 10 7 28 7 40 2
22 2 22 6 0 2 -12 -1 -30 -7 -40z m790 38 c0 -6 -4 -13 -10 -16 -5 -3 -10 1
-10 9 0 9 5 16 10 16 6 0 10 -4 10 -9z m-1293 -47 c-3 -3 -12 -4 -19 -1 -8 3
-5 6 6 6 11 1 17 -2 13 -5z m486 -45 c-8 -8 -13 -7 -18 2 -6 8 -4 10 5 4 10
-6 11 -1 7 21 -6 27 -6 27 5 6 8 -16 8 -26 1 -33z m-538 31 c-11 -5 -27 -9
-35 -9 -9 0 -8 4 5 9 11 5 27 9 35 9 9 0 8 -4 -5 -9z m-1139 -29 c-1 -31 -16
-33 -16 -2 0 15 8 31 15 31 1 0 2 -13 1 -29z m1074 9 c-8 -5 -19 -10 -25 -10
-5 0 -3 5 5 10 8 5 20 10 25 10 6 0 3 -5 -5 -10z m661 -36 c5 -7 3 -11 -6 -11
-10 0 -15 10 -14 26 0 16 3 20 6 11 3 -8 10 -20 14 -26z m-31 0 c0 -8 -4 -12
-10 -9 -5 3 -10 10 -10 16 0 5 5 9 10 9 6 0 10 -7 10 -16z m-1667 -77 c-32
-34 -72 -88 -88 -119 -16 -31 -31 -55 -33 -53 -10 10 59 118 111 172 33 35 62
63 65 63 2 0 -22 -28 -55 -63z m-88 31 c-6 -22 -5 -22 9 -5 9 12 16 14 21 8 3
-6 -1 -14 -9 -17 -9 -3 -14 -10 -11 -14 6 -10 -24 -22 -36 -14 -5 3 -2 18 8
35 21 35 27 37 18 7z m1797 12 c3 9 8 7 17 -4 12 -14 12 -16 -1 -11 -9 4 -15
0 -16 -10 -1 -8 -3 -22 -4 -30 -1 -8 -4 -13 -6 -10 -3 3 -11 0 -18 -6 -15 -12
-34 -4 -34 14 0 7 4 6 10 -3 13 -21 23 -5 11 19 -8 14 -8 22 1 27 6 4 9 3 6
-2 -3 -5 0 -15 8 -22 12 -11 14 -8 9 20 -3 21 -2 28 4 19 6 -10 10 -10 13 -1z
m-1829 -86 c-2 -7 0 -15 6 -18 5 -4 12 3 16 14 6 20 25 28 25 11 0 -15 -32
-36 -51 -33 -14 2 -17 -1 -12 -14 4 -11 3 -15 -5 -10 -6 3 -10 15 -9 26 1 10
5 16 9 14 16 -10 8 9 -9 22 -17 13 -17 14 0 8 13 -5 16 -2 11 12 -6 18 -5 17
9 -1 8 -10 13 -25 10 -31z m1480 18 c26 -9 47 -20 47 -24 0 -4 -26 -8 -57 -8
-32 0 -103 -7 -157 -14 -86 -13 -101 -13 -113 0 -8 8 -19 11 -25 8 -7 -4 -8
-2 -4 4 4 6 14 8 23 5 12 -5 14 -3 8 8 -7 12 -6 12 9 -1 16 -12 20 -12 30 1
10 13 62 33 111 42 28 5 72 -2 128 -21z m-1038 8 c-19 -8 -19 -9 3 -9 13 -1
32 4 43 10 13 7 30 7 52 0 18 -5 50 -14 72 -20 38 -10 121 -61 98 -61 -6 0
-33 4 -61 10 -29 5 -102 14 -164 20 -143 13 -167 18 -147 31 19 12 38 11 19
-1 -11 -8 -7 -9 15 -4 37 8 44 14 19 15 -12 1 -7 4 11 9 42 11 65 11 40 0z
m1402 -35 c4 -4 2 -5 -4 -1 -16 9 -16 1 -2 -26 8 -15 8 -23 -1 -32 -8 -8 -9
-6 -4 8 5 13 4 17 -4 12 -6 -3 -16 3 -22 15 -10 17 -9 20 1 14 9 -6 11 -4 6 7
-6 17 16 19 30 3z m-697 -35 c-24 -15 -36 -11 -14 4 10 8 21 12 24 10 2 -3 -2
-9 -10 -14z m-695 -14 c88 -5 248 -27 297 -42 9 -3 30 -31 45 -62 24 -50 28
-69 28 -147 0 -77 -4 -98 -27 -147 -50 -107 -149 -180 -274 -201 -117 -20
-265 40 -334 134 -96 133 -92 316 9 431 34 39 51 45 116 41 22 -1 85 -4 140
-7z m1170 -17 c14 -18 38 -55 53 -83 24 -46 27 -62 27 -151 0 -92 -2 -104 -30
-155 -60 -108 -167 -182 -285 -196 -117 -13 -259 52 -327 150 -71 103 -82 243
-28 350 l27 54 87 16 c153 27 281 42 383 44 63 2 68 0 93 -29z m40 1 c10 -11
16 -20 13 -20 -3 0 -13 9 -23 20 -10 11 -16 20 -13 20 3 0 13 -9 23 -20z m205
-12 c-10 -19 -10 -21 0 -11 11 10 16 9 26 -5 8 -9 13 -21 13 -27 0 -5 -4 -3
-9 7 -6 10 -18 14 -30 11 -23 -6 -26 8 -8 37 17 26 23 17 8 -12z m-1877 7 c-3
-9 -8 -14 -10 -11 -3 3 -2 9 2 15 9 16 15 13 8 -4z m-42 -56 c-5 -13 -10 -19
-10 -12 -1 15 10 45 15 40 3 -2 0 -15 -5 -28z m1757 -14 c-3 -3 -9 2 -12 12
-6 14 -5 15 5 6 7 -7 10 -15 7 -18z m179 19 c-3 -3 -12 -4 -19 -1 -8 3 -5 6 6
6 11 1 17 -2 13 -5z m13 -26 c0 -4 -7 -8 -15 -8 -8 0 -15 4 -15 8 0 5 7 9 15
9 8 0 15 -4 15 -9z m30 2 c0 -5 -2 -10 -4 -10 -3 0 -8 5 -11 10 -3 6 -1 10 4
10 6 0 11 -4 11 -10z m-2005 -9 c-3 -5 -1 -12 5 -16 5 -3 10 -1 10 4 0 6 5 11
12 11 26 0 -12 -24 -42 -26 l-30 -2 22 18 c26 22 32 24 23 11z m62 -33 c-3 -8
-6 -5 -6 6 -1 11 2 17 5 13 3 -3 4 -12 1 -19z m1752 -52 c1 -42 -5 -29 -12 24
-4 30 -3 38 3 25 5 -11 9 -33 9 -49z m-882 22 c-3 -8 -6 -5 -6 6 -1 11 2 17 5
13 3 -3 4 -12 1 -19z m-880 -20 c-3 -8 -6 -5 -6 6 -1 11 2 17 5 13 3 -3 4 -12
1 -19z m890 -90 c-2 -18 -4 -6 -4 27 0 33 2 48 4 33 2 -15 2 -42 0 -60z
m-1302 -10 c19 -13 35 -26 35 -30 0 -14 -61 15 -71 33 -13 25 -6 24 36 -3z
m2172 -40 c-3 -7 -5 -2 -5 12 0 14 2 19 5 13 2 -7 2 -19 0 -25z m-880 -10 c-3
-8 -6 -5 -6 6 -1 11 2 17 5 13 3 -3 4 -12 1 -19z m1063 -66 c-8 -3 -22 -10
-30 -16 -8 -6 -7 -1 4 11 10 13 23 20 29 16 7 -4 6 -8 -3 -11z m0 -26 c0 -3
-4 -8 -10 -11 -5 -3 -10 -1 -10 4 0 6 5 11 10 11 6 0 10 -2 10 -4z m-20 -78
l-10 -33 5 37 c3 20 1 39 -5 43 -5 3 -10 11 -10 18 0 6 7 2 15 -10 12 -18 14
-29 5 -55z m-1890 -3 c57 -98 120 -160 205 -203 85 -43 228 -88 245 -77 6 4
17 1 25 -5 8 -7 15 -9 15 -5 0 4 6 3 13 -3 12 -10 164 -10 202 1 11 3 27 6 35
7 12 0 11 4 -4 15 -23 18 -14 20 16 4 11 -6 18 -7 14 -1 -3 5 6 10 20 10 27 0
67 29 58 43 -3 5 1 7 8 4 7 -3 26 6 41 21 l28 26 -25 22 c-15 12 -26 26 -26
31 0 6 3 6 8 0 10 -15 103 -68 101 -58 -3 20 2 24 16 13 8 -7 15 -18 15 -24 0
-6 -5 -4 -10 4 -9 13 -10 13 -10 0 0 -8 9 -21 20 -27 17 -11 19 -10 14 5 -3 9
1 6 10 -8 23 -40 211 -120 264 -114 21 3 31 1 27 -6 -5 -8 34 -13 105 -12 40
0 126 14 134 22 6 6 20 10 32 10 15 0 24 8 29 28 4 15 10 21 12 15 8 -22 43
-14 55 12 6 14 16 25 21 25 5 0 4 -7 -3 -15 -11 -13 -10 -14 4 -9 9 3 16 9 16
13 0 3 16 15 35 25 19 11 35 23 35 27 0 5 9 13 19 19 19 10 19 2 14 -355 -4
-271 -2 -369 6 -379 8 -9 8 -16 2 -20 -6 -4 -8 -12 -6 -19 5 -13 -56 -57 -79
-57 -8 0 -16 -4 -18 -9 -1 -5 -12 -11 -23 -13 -11 -1 -23 -7 -26 -12 -4 -5
-17 -10 -30 -11 -13 -1 -30 -3 -37 -4 -7 0 -10 -6 -6 -13 5 -7 2 -9 -9 -5 -9
3 -17 2 -19 -3 -2 -5 -21 -12 -42 -15 -22 -2 -43 -10 -47 -16 -4 -6 -12 -8
-18 -5 -6 4 -11 2 -11 -4 0 -7 -7 -10 -15 -7 -8 4 -17 2 -21 -4 -3 -6 -12 -8
-20 -5 -7 3 -16 1 -19 -4 -3 -5 -13 -8 -23 -8 -17 1 -58 -7 -90 -16 -9 -3 -39
-7 -67 -10 -27 -3 -68 -8 -90 -11 -22 -3 -58 -7 -80 -9 -22 -3 -55 -11 -73
-18 -26 -10 -36 -10 -53 0 -11 7 -47 13 -80 13 -39 1 -57 4 -53 11 5 7 -5 9
-30 4 -24 -5 -36 -3 -36 5 0 8 -12 9 -37 5 -29 -5 -34 -4 -23 4 12 9 8 11 -17
7 -18 -2 -33 1 -33 6 0 5 -15 6 -34 3 -21 -4 -37 -2 -41 4 -4 6 -14 9 -22 6
-9 -4 -11 -2 -7 6 5 7 0 9 -14 6 -12 -4 -22 -2 -22 4 0 6 -10 8 -23 4 -14 -3
-33 1 -46 10 -12 9 -25 14 -28 10 -3 -3 -20 1 -38 9 -19 7 -36 11 -39 7 -3 -3
-6 0 -6 6 0 7 -3 11 -7 10 -44 -10 -314 122 -400 197 l-43 37 0 289 0 289 39
0 c22 0 43 6 48 13 4 6 8 55 9 107 1 183 2 192 20 182 9 -5 29 -31 44 -57z
m1845 35 c-9 -16 -18 -30 -21 -30 -2 0 2 14 11 30 9 17 18 30 21 30 2 0 -2
-13 -11 -30z m22 -22 c-3 -8 -6 -5 -6 6 -1 11 2 17 5 13 3 -3 4 -12 1 -19z
m-44 -82 c7 4 8 3 4 -2 -4 -4 -21 -9 -37 -9 -27 -1 -28 0 -12 16 14 13 18 14
25 2 5 -7 14 -10 20 -7z m-918 -5 c-2 -11 4 -26 13 -33 14 -11 15 -11 9 6 -6
16 -5 17 8 6 12 -10 13 -15 4 -21 -14 -8 -38 -1 -40 12 -1 5 -2 15 -3 22 -2
13 3 27 9 27 2 0 2 -9 0 -19z m328 -46 c-3 -9 -8 -14 -10 -11 -3 3 -2 9 2 15
9 16 15 13 8 -4z m511 -3 c3 -5 -1 -9 -9 -9 -8 0 -12 4 -9 9 3 4 7 8 9 8 2 0
6 -4 9 -8z m111 -2 c3 -5 1 -10 -4 -10 -6 0 -11 5 -11 10 0 6 2 10 4 10 3 0 8
-4 11 -10z m-970 -30 c10 -11 15 -20 12 -20 -4 0 -10 0 -14 0 -5 0 -8 5 -8 12
0 6 -6 13 -14 16 -8 3 -11 0 -7 -7 5 -7 1 -9 -8 -5 -9 3 -13 10 -10 15 9 15
30 10 49 -11z m1028 -20 c-7 -27 -13 -25 -11 4 1 14 5 23 9 20 4 -2 5 -13 2
-24z m-1108 4 c-11 -8 -19 -20 -17 -25 4 -15 -35 -61 -42 -50 -4 5 2 15 11 21
16 10 16 11 -2 5 -11 -4 -24 -8 -30 -9 -5 -1 -24 -10 -42 -19 -18 -9 -36 -17
-40 -17 -4 1 10 11 32 22 22 12 43 21 48 20 4 -1 7 3 7 9 0 5 5 7 10 4 6 -3
10 -1 10 6 0 8 5 7 17 -2 15 -12 16 -12 10 3 -4 12 1 23 16 33 28 20 38 19 12
-1z m900 6 c3 -5 1 -10 -4 -10 -6 0 -11 5 -11 10 0 6 2 10 4 10 3 0 8 -4 11
-10z m50 -10 c-3 -5 -12 -10 -18 -10 -7 0 -6 4 3 10 19 12 23 12 15 0z m-75
-10 c0 -5 -4 -10 -10 -10 -5 0 -10 5 -10 10 0 6 5 10 10 10 6 0 10 -4 10 -10z
m-25 -43 c-10 -5 -21 -4 -30 3 -22 19 -8 31 21 18 21 -10 23 -13 9 -21z m-830
3 c0 -7 -7 -15 -15 -17 -13 -4 -13 -3 0 6 13 10 13 12 0 22 -13 9 -13 10 0 6
8 -2 15 -10 15 -17z m262 4 c6 -1 19 -7 30 -13 15 -9 13 -10 -12 -5 -16 4 -37
13 -45 22 -13 13 -13 14 0 6 8 -5 20 -9 27 -10z m853 -9 c0 -12 -19 -12 -23 0
-4 9 -1 12 9 8 7 -3 14 -7 14 -8z m-340 -11 c0 -2 -9 -4 -21 -4 -11 0 -18 4
-14 10 5 8 35 3 35 -6z m380 12 c0 -3 -4 -8 -10 -11 -5 -3 -10 -1 -10 4 0 6 5
11 10 11 6 0 10 -2 10 -4z m-368 -38 c-8 -8 -9 -4 -5 13 4 13 8 18 11 10 2 -7
-1 -18 -6 -23z m-399 0 c23 4 22 -4 -3 -11 -11 -3 -25 2 -32 11 -11 13 -11 14
2 7 8 -5 23 -8 33 -7z m-606 -4 c-3 -3 -12 -4 -19 -1 -8 3 -5 6 6 6 11 1 17
-2 13 -5z m88 -3 c-11 -9 -103 -26 -94 -16 4 3 26 9 50 14 24 5 46 9 49 10 2
1 0 -3 -5 -8z m782 3 c-3 -3 -12 -4 -19 -1 -8 3 -5 6 6 6 11 1 17 -2 13 -5z
m68 -4 c3 -5 1 -10 -4 -10 -6 0 -11 5 -11 10 0 6 2 10 4 10 3 0 8 -4 11 -10z
m474 -47 c-1 -32 -4 -46 -6 -30 -2 15 -8 25 -13 22 -4 -3 -6 5 -3 17 15 68 23
64 22 -9z m-1449 36 c0 -11 -21 -11 -39 0 -9 6 -5 9 13 9 14 0 26 -4 26 -9z
m675 1 c-3 -5 -12 -10 -18 -10 -7 0 -6 4 3 10 19 12 23 12 15 0z m74 -4 c9
-11 7 -15 -11 -19 -12 -4 -24 -4 -27 -2 -2 3 1 5 7 5 7 0 12 5 12 11 0 6 -9 8
-22 4 -18 -5 -20 -4 -8 4 20 15 35 14 49 -3z m56 4 c-4 -6 -1 -19 6 -28 11
-14 11 -15 -1 -4 -18 15 -34 16 -24 0 5 -7 3 -8 -5 -4 -9 6 -8 13 5 27 19 21
29 25 19 9z m32 -5 c0 -8 -4 -15 -9 -15 -10 0 -11 14 -1 23 9 10 10 9 10 -8z
m190 -1 c-3 -3 -12 -4 -19 -1 -8 3 -5 6 6 6 11 1 17 -2 13 -5z m-150 -10 c-3
-3 -12 -4 -19 -1 -8 3 -5 6 6 6 11 1 17 -2 13 -5z m560 -176 c-3 -8 -6 -5 -6
6 -1 11 2 17 5 13 3 -3 4 -12 1 -19z m13 -155 c-9 -14 -10 -10 -6 22 3 22 7
51 8 65 1 14 3 4 5 -22 2 -26 -1 -56 -7 -65z m7 -80 c-3 -10 -5 -4 -5 12 0 17
2 24 5 18 2 -7 2 -21 0 -30z m-20 -50 c-3 -10 -5 -4 -5 12 0 17 2 24 5 18 2
-7 2 -21 0 -30z m20 -35 c-3 -7 -5 -2 -5 12 0 14 2 19 5 13 2 -7 2 -19 0 -25z
m-39 -29 c-15 -4 -31 -10 -37 -14 -6 -3 -11 -2 -11 2 0 12 52 31 65 24 5 -2
-3 -8 -17 -12z m110 -17 c-9 -10 -13 -10 -19 0 -4 7 -3 18 3 26 9 10 13 10 19
0 4 -7 3 -18 -3 -26z m-2275 -39 c-6 -15 -4 -16 8 -6 20 16 81 -29 73 -55 -5
-13 -4 -14 4 -3 8 11 15 10 41 -5 34 -20 36 -26 21 -55 -11 -19 -12 -19 -40
-2 -17 9 -30 23 -30 30 0 7 -7 13 -15 13 -9 0 -39 22 -67 49 -44 43 -50 52
-44 77 l7 27 25 -26 c16 -17 22 -32 17 -44z m2107 27 c0 -5 -2 -10 -4 -10 -3
0 -8 5 -11 10 -3 6 -1 10 4 10 6 0 11 -4 11 -10z m39 -3 c-2 -1 -13 -9 -24
-17 -19 -14 -19 -14 -6 3 7 9 18 17 24 17 6 0 8 -1 6 -3z m73 -39 c-5 -7 -11
-16 -11 -20 -2 -15 -14 -13 -25 5 -9 15 -7 21 8 33 23 17 46 3 28 -18z m-125
0 c-3 -8 -6 -5 -6 6 -1 11 2 17 5 13 3 -3 4 -12 1 -19z m205 -10 c-9 -9 -12
-7 -12 12 0 19 3 21 12 12 9 -9 9 -15 0 -24z m-2338 3 c10 -11 14 -25 9 -37
-6 -16 -5 -17 9 -6 13 11 21 8 47 -14 27 -22 29 -28 19 -47 -10 -21 -10 -21 8
-5 19 16 21 16 48 -6 25 -19 27 -25 17 -44 -15 -28 -22 -28 -55 3 -15 14 -30
25 -34 25 -4 0 -29 22 -55 49 -32 33 -47 57 -47 75 0 31 10 33 34 7z m2100
-22 c-10 -16 -23 -9 -21 10 1 15 4 17 14 9 7 -5 10 -14 7 -19z m116 0 c0 -6
-4 -7 -10 -4 -5 3 -10 11 -10 16 0 6 5 7 10 4 6 -3 10 -11 10 -16z m-28 -23
c4 -18 1 -23 -10 -18 -9 3 -13 1 -9 -5 3 -5 -3 -9 -15 -8 -12 1 -24 8 -26 16
-3 11 -1 11 7 -1 9 -13 11 -13 11 1 0 15 19 39 31 39 4 0 9 -11 11 -24z m93
-16 c-12 -14 -22 -17 -29 -10 -6 6 -3 16 9 30 12 14 22 17 29 10 6 -6 3 -16
-9 -30z m-2305 -40 c-6 -12 -9 -24 -7 -27 3 -2 11 5 17 17 l12 22 29 -28 c33
-31 35 -42 15 -70 -14 -18 -16 -18 -55 21 -40 38 -49 64 -35 100 6 15 9 15 21
2 12 -12 13 -19 3 -37z m2387 20 c0 -16 -2 -30 -3 -30 -9 0 -24 42 -19 50 12
19 22 10 22 -20z m-250 -20 c-2 -11 -7 -23 -12 -27 -4 -5 -5 -3 -1 4 4 8 -1
11 -13 10 -15 -1 -17 -5 -10 -13 7 -9 -1 -19 -33 -38 -58 -33 -68 -35 -78 -9
-12 30 11 49 39 33 18 -9 21 -8 21 12 0 21 0 21 16 2 15 -19 15 -19 10 1 -4
15 2 25 21 37 32 19 44 15 40 -12z m-1866 5 c25 -13 28 -19 19 -35 -13 -24 -2
-27 15 -4 10 15 14 15 46 -1 19 -10 35 -19 37 -20 6 -5 -22 -55 -30 -55 -17 0
-68 30 -68 40 0 6 -9 10 -19 10 -10 0 -29 8 -41 18 -19 16 -21 22 -11 40 14
26 14 26 52 7z m1972 -15 c3 -11 -2 -25 -11 -32 -12 -10 -14 -10 -8 0 4 7 2
12 -8 12 -8 0 -16 -5 -18 -12 -3 -7 -7 -5 -11 6 -4 9 -3 15 2 12 5 -3 11 3 14
14 7 26 33 26 40 0z m115 -10 c8 -22 8 -29 -1 -27 -7 1 -11 -4 -9 -11 3 -16
-33 1 -42 20 -3 7 -3 2 0 -11 4 -16 3 -21 -5 -17 -17 11 -13 34 9 56 27 27 36
25 48 -10z m-2103 -80 c-5 -23 -4 -24 9 -7 15 20 37 17 69 -7 14 -11 16 -19 7
-41 l-10 -27 -68 38 c-87 48 -88 48 -74 79 12 26 12 26 43 8 24 -14 29 -23 24
-43z m1915 46 c0 -8 -7 -17 -16 -20 -8 -3 -13 -10 -10 -15 3 -5 -1 -14 -9 -21
-12 -10 -16 -7 -25 15 -6 15 -9 29 -8 30 33 25 68 31 68 11z m106 -13 c18 -24
17 -31 -6 -43 -15 -8 -21 -6 -30 11 -9 15 -8 24 1 35 15 18 19 18 35 -3z
m-2138 -12 c22 -19 22 -20 5 -50 -22 -37 -24 -37 -59 -8 -26 23 -27 24 -9 50
20 32 32 33 63 8z m335 -8 c26 -13 27 -14 12 -43 -9 -17 -17 -30 -19 -30 -3 0
-25 9 -51 20 l-46 20 16 30 c17 33 28 34 88 3z m1507 6 c7 -11 10 -22 8 -24
-14 -12 -71 -35 -88 -35 -11 0 -20 -4 -20 -10 0 -5 -19 -14 -42 -21 -24 -6
-56 -17 -73 -24 -44 -19 -103 -34 -109 -28 -3 3 -11 1 -18 -4 -7 -6 -32 -14
-55 -18 -35 -5 -43 -4 -52 14 -17 31 -13 39 22 46 17 4 40 9 49 11 10 3 19 -3
23 -16 3 -11 11 -20 16 -20 6 0 6 8 -1 20 -9 17 -5 21 42 35 64 19 77 19 84 0
4 -8 10 -15 15 -15 6 0 6 8 0 19 -9 16 -4 21 32 35 37 15 43 15 53 1 6 -8 15
-15 19 -15 4 0 2 6 -4 14 -10 12 -6 18 26 35 49 26 60 26 73 0z m113 -54 c-10
-8 -30 -17 -45 -20 -16 -4 -28 -10 -28 -14 0 -5 -21 -16 -47 -25 -27 -10 -57
-22 -67 -28 -37 -20 -74 -26 -85 -15 -22 22 -11 44 29 57 37 12 42 12 56 -6
15 -18 15 -18 5 2 -10 20 -6 24 36 44 42 20 48 20 59 6 16 -23 27 -20 14 4 -9
17 -5 22 27 39 l38 19 13 -25 c12 -22 11 -26 -5 -38z m-2110 49 c7 -7 -51
-104 -63 -104 -5 0 -10 -10 -13 -22 -3 -22 -4 -22 -12 -4 -6 13 -5 21 3 24 7
2 12 8 12 14 0 13 53 98 61 98 3 0 8 -3 12 -6z m2257 -38 c0 -12 -5 -7 -19 24
-11 24 -11 24 3 6 9 -11 16 -24 16 -30z m175 25 c-3 -6 -11 -11 -17 -11 -6 0
-6 6 2 15 14 17 26 13 15 -4z m-1856 -17 c38 -15 39 -17 29 -42 -7 -15 -15
-31 -18 -35 -7 -8 -90 20 -90 30 0 8 30 63 35 63 3 0 22 -7 44 -16z m1649 -8
c9 -19 8 -25 -3 -30 -8 -3 -12 -12 -9 -20 4 -10 -2 -17 -20 -22 -14 -3 -26 -9
-26 -13 0 -4 -16 -15 -35 -24 l-35 -17 -15 30 c-21 41 -19 47 17 66 30 15 32
15 45 -2 7 -10 13 -21 13 -26 0 -4 5 -8 10 -8 6 0 4 14 -5 31 -18 35 -19 34
15 48 35 14 36 14 48 -13z m-2179 -10 l23 -25 -19 -28 c-30 -43 -35 -53 -26
-53 4 0 18 18 31 40 l23 41 29 -23 c35 -28 35 -29 10 -78 -11 -22 -16 -40 -12
-40 5 0 17 18 27 40 l18 39 28 -20 c24 -17 27 -24 19 -39 -16 -30 -11 -37 8
-12 l18 23 36 -28 c20 -15 44 -34 54 -41 17 -11 17 -12 -5 -6 -26 7 -97 13
-154 13 -21 0 -43 4 -50 8 -6 4 -19 8 -27 10 -8 1 -27 16 -42 33 -16 16 -28
27 -28 23 0 -3 -11 4 -25 17 -14 13 -25 30 -25 37 0 16 49 93 60 93 3 0 17
-11 29 -24z m179 6 c20 -16 21 -20 10 -50 -16 -41 -22 -41 -86 3 -6 5 34 65
43 65 6 0 20 -8 33 -18z m2244 -46 c-16 -18 -16 -18 6 -7 13 7 22 8 22 2 0 -6
-9 -15 -19 -20 -15 -8 -20 -7 -25 5 -3 8 -11 12 -17 8 -8 -4 -9 -3 -5 5 4 6 2
19 -5 27 -10 12 -8 17 7 29 17 12 21 11 36 -8 16 -20 16 -23 0 -41z m-2004 7
c8 -3 10 -14 6 -27 -6 -20 -5 -20 8 -3 13 18 16 18 55 2 33 -13 40 -20 36 -36
-3 -12 -12 -23 -19 -26 -17 -6 -84 16 -84 28 0 5 -9 9 -20 9 -17 0 -73 23 -88
35 -1 1 3 14 9 28 12 26 12 26 48 11 20 -9 42 -18 49 -21z m1902 22 c-7 -8
-18 -15 -24 -15 -6 0 -2 7 8 15 25 19 32 19 16 0z m-1662 -8 c24 -7 44 -15 44
-18 4 -10 -22 -69 -30 -69 -10 0 -116 31 -120 35 -2 2 4 17 13 34 17 34 30 37
93 18z m-404 -18 l35 -20 -16 -35 c-9 -19 -21 -34 -25 -34 -12 0 -68 29 -68
35 0 6 33 75 36 75 2 0 19 -9 38 -21z m2107 -25 c20 -33 20 -37 6 -52 -9 -9
-20 -13 -24 -9 -3 4 2 14 13 22 18 15 18 15 -7 9 -19 -4 -28 -1 -33 11 -3 9
-10 13 -16 10 -18 -11 -11 4 12 25 12 11 23 20 24 20 1 0 12 -16 25 -36z
m-1585 15 c47 -12 50 -17 33 -52 -10 -21 -10 -21 5 -3 9 11 16 23 16 28 0 10
68 9 91 0 14 -6 14 -11 2 -40 -15 -36 -21 -37 -125 -19 -16 3 -46 8 -68 12
-22 4 -40 8 -40 11 0 7 34 74 37 74 2 0 24 -5 49 -11z m1243 -35 c12 -19 21
-37 21 -39 0 -6 -49 -31 -77 -39 -19 -6 -25 -1 -40 28 -9 20 -15 37 -12 40 3
3 80 44 86 46 0 0 10 -16 22 -36z m236 26 c-3 -6 -21 -17 -38 -26 l-32 -15 30
25 c30 26 51 34 40 16z m-1901 -30 l46 -19 -17 -36 c-9 -19 -22 -35 -30 -35
-19 0 -83 33 -83 42 0 11 29 68 34 68 3 0 25 -9 50 -20z m1134 -5 c13 -28 11
-30 -45 -40 -39 -6 -43 -5 -57 24 -18 34 -13 38 55 40 29 1 38 -4 47 -24z
m292 -21 c0 -12 -79 -44 -110 -44 -9 0 -22 11 -28 24 -11 24 -9 25 51 44 56
17 63 17 75 4 6 -9 12 -21 12 -28z m510 6 c11 -21 20 -43 20 -48 0 -14 -57
-35 -75 -28 -8 3 -14 0 -12 -7 1 -7 -12 -13 -33 -15 -32 -3 -38 1 -52 32 l-17
34 31 11 c39 14 35 15 53 -16 15 -25 14 -16 -1 21 -3 8 8 22 28 34 18 12 34
22 35 22 2 0 12 -18 23 -40z m208 -67 c-6 -7 -15 -13 -21 -13 -6 0 -2 7 9 16
19 15 19 15 -2 9 -15 -4 -24 0 -28 10 -3 9 -10 13 -16 10 -6 -4 -7 1 -3 11 4
12 3 15 -5 10 -18 -11 -2 26 17 41 14 10 19 5 38 -35 16 -34 19 -50 11 -59z
m-1475 87 c25 0 27 -2 17 -21 -6 -11 -10 -25 -8 -31 2 -6 10 3 17 20 14 32 38
42 46 20 8 -21 -11 -73 -25 -70 -6 1 -41 5 -77 7 -36 2 -67 6 -70 8 -2 3 4 21
14 41 14 29 22 36 38 32 11 -3 33 -6 48 -6z m347 -20 c7 -17 11 -32 9 -34 -2
-2 -40 -5 -84 -7 l-80 -4 -3 33 c-3 26 0 32 16 32 11 0 24 -11 31 -26 6 -15
14 -24 17 -21 3 3 1 14 -5 25 -9 18 -8 21 12 25 60 12 74 8 87 -23z m-1422
-27 c8 -3 -39 -83 -49 -83 -5 0 -21 11 -33 24 -13 12 -31 26 -39 29 -16 6 -13
42 5 53 18 11 32 -14 18 -31 -7 -8 -8 -15 -3 -15 6 0 18 16 29 35 l18 34 26
-22 c14 -12 26 -23 28 -24z m662 30 c53 -14 60 -19 55 -37 -5 -19 -5 -19 5 -3
13 20 21 21 73 6 32 -9 37 -13 32 -32 l-6 -22 18 21 c15 17 26 20 61 16 43 -4
53 -19 33 -51 -8 -13 -19 -13 -73 -3 -35 6 -80 14 -101 18 -20 3 -40 10 -43
15 -3 5 -9 7 -13 4 -10 -5 -112 23 -124 35 -8 7 8 50 19 50 2 0 31 -8 64 -17z
m1304 -35 c20 -39 20 -37 -6 -47 -63 -23 -66 -23 -82 8 -22 42 -21 47 22 64
43 17 46 17 66 -25z m-274 -14 c0 -12 -57 -34 -88 -34 -11 0 -37 48 -30 55 2
2 23 7 48 12 46 10 70 -1 70 -33z m-1176 21 c36 -15 36 -15 21 -45 -9 -17 -13
-30 -11 -30 3 0 12 13 21 29 l15 29 64 -21 65 -21 -20 -38 c-14 -28 -25 -38
-37 -34 -9 3 -36 10 -59 17 -24 7 -43 16 -43 21 0 4 -9 8 -20 8 -11 0 -36 7
-55 14 l-35 15 21 35 c24 41 24 41 73 21z m1952 -27 c15 -30 15 -32 -2 -45
-15 -11 -20 -10 -34 12 -9 14 -20 22 -25 18 -9 -9 3 15 18 35 15 19 25 15 43
-20z m-898 -3 c14 -30 10 -32 -59 -40 -144 -18 -136 -18 -149 5 -10 18 -9 24
1 31 24 15 81 10 95 -8 12 -17 13 -16 8 4 -5 17 -1 22 18 26 57 11 75 7 86
-18z m295 -10 c9 -20 17 -37 17 -40 0 -4 -86 -33 -120 -39 -14 -3 -41 -10 -60
-15 -54 -17 -65 -14 -83 24 -9 20 -17 37 -17 40 0 2 21 8 48 14 39 9 49 8 57
-5 6 -9 16 -23 23 -32 12 -15 13 -15 7 3 -17 49 -17 50 37 66 73 23 72 23 91
-16z m-1783 -32 c0 -4 -30 -65 -35 -71 -5 -6 -75 41 -75 50 0 6 9 26 21 44
l21 34 34 -26 c19 -15 34 -28 34 -31z m2094 32 c9 -13 16 -26 16 -28 0 -11
-75 -15 -87 -5 -9 7 -13 7 -13 -1 0 -6 -12 -11 -27 -11 l-28 1 30 16 c17 9 41
24 54 34 31 24 35 24 55 -6z m-134 0 c-14 -8 -29 -14 -35 -14 -5 0 1 6 15 14
14 8 30 14 35 14 6 0 -1 -6 -15 -14z m-2183 -50 c-23 -49 -21 -58 4 -12 22 42
25 43 59 17 l25 -19 -23 -45 c-12 -25 -26 -46 -30 -46 -5 0 -21 11 -36 25 -15
14 -32 24 -39 22 -18 -3 -10 41 14 80 15 24 25 31 32 24 8 -8 6 -21 -6 -46z
m543 19 c0 -2 -13 2 -30 11 -16 9 -30 18 -30 21 0 2 14 -2 30 -11 17 -9 30
-18 30 -21z m637 26 c10 0 14 -7 10 -20 -7 -27 10 -26 18 1 6 17 12 19 33 14
34 -9 35 -9 27 -35 -6 -20 -11 -21 -93 -15 -48 4 -89 9 -91 11 -2 2 1 16 8 30
10 23 16 26 43 20 17 -3 37 -6 45 -6z m309 -15 c14 -30 9 -35 -32 -35 -20 0
-34 6 -38 16 -13 33 -6 44 27 44 24 0 35 -6 43 -25z m1051 -19 c24 -49 21 -56
-30 -75 -25 -10 -28 -8 -47 29 -11 22 -20 43 -20 48 0 7 55 40 71 41 3 1 15
-19 26 -43z m-407 19 c0 -5 -75 -45 -85 -45 -28 0 41 44 78 49 4 1 7 -1 7 -4z
m610 -34 c17 -34 18 -40 4 -45 -26 -10 -30 -7 -46 28 -12 25 -14 36 -5 45 18
18 25 13 47 -28z m-1801 13 c2 -2 -1 -16 -8 -30 -6 -15 -9 -29 -6 -32 3 -3 10
9 16 27 11 31 12 32 58 25 25 -4 48 -8 50 -10 2 -2 -1 -16 -8 -30 -17 -39 -5
-42 14 -4 16 31 19 32 58 26 23 -4 43 -8 45 -10 2 -2 -4 -21 -12 -41 l-16 -38
-48 7 c-26 4 -67 10 -92 13 -25 3 -52 8 -60 12 -8 4 -29 8 -47 9 -18 1 -44 7
-58 12 l-25 9 22 37 c21 35 22 36 67 29 25 -4 48 -9 50 -11z m-636 0 c3 -4 -1
-21 -10 -38 -26 -52 -31 -56 -64 -44 -33 11 -35 18 -14 58 12 24 22 30 49 30
18 0 35 -3 39 -6z m304 -6 c18 -7 33 -18 33 -25 0 -17 -4 -17 -50 7 -60 30
-49 42 17 18z m1139 -23 c9 -20 15 -38 12 -40 -3 -3 -25 -8 -51 -11 -45 -6
-46 -6 -61 31 -20 46 -20 43 7 48 62 12 76 8 93 -28z m699 -12 c18 -43 10 -56
-31 -51 -22 2 -33 12 -46 38 -23 47 -23 48 15 52 42 5 45 3 62 -39z m185 42
c0 -2 -10 -10 -22 -16 -21 -11 -22 -11 -9 4 13 16 31 23 31 12z m-2236 -27
c-15 -48 -14 -52 2 -20 15 28 23 32 57 32 38 0 39 0 33 -32 l-5 -33 11 28 c15
33 32 34 63 3 13 -13 26 -22 28 -19 3 2 19 -3 37 -12 40 -21 32 -30 -17 -20
-21 4 -100 7 -175 7 -84 -1 -138 3 -138 9 0 5 7 25 14 44 14 32 19 35 56 35
38 0 41 -2 34 -22z m1236 -19 c12 -23 20 -42 18 -44 -2 -1 -32 -5 -68 -9 -36
-3 -79 -8 -96 -12 -29 -5 -32 -3 -43 27 -18 52 -15 59 27 59 33 0 41 -4 55
-32 16 -30 17 -24 6 22 -3 10 7 17 36 21 22 3 41 7 42 8 2 0 12 -17 23 -40z
m714 19 c8 -13 17 -33 21 -46 6 -22 6 -22 -94 -20 -56 2 -101 0 -101 -4 0 -5
-18 -8 -40 -8 -41 0 -45 5 -34 48 4 15 14 22 30 22 16 0 28 -8 35 -22 9 -22 9
-21 4 3 -4 21 0 28 18 33 43 11 57 6 72 -26 l15 -33 -6 32 c-4 27 -2 32 18 36
43 8 48 7 62 -15z m-316 1 c-6 -19 -112 -59 -120 -46 -9 15 -7 17 54 38 64 21
71 22 66 8z m637 -29 c9 -17 13 -35 10 -39 -3 -5 -1 -11 5 -13 6 -2 0 -9 -12
-17 -21 -13 -22 -13 -9 3 13 15 12 17 -12 12 -20 -3 -25 -1 -20 11 4 9 2 14
-3 11 -5 -4 -10 6 -11 20 -1 25 11 41 29 42 4 0 15 -14 23 -30z m-2525 0 l39
-20 -19 -42 c-10 -24 -24 -44 -29 -46 -11 -4 -81 35 -81 44 0 7 44 84 48 84 1
0 20 -9 42 -20z m586 4 c56 -16 60 -20 45 -43 -7 -11 -19 -9 -65 12 -31 14
-56 31 -56 36 0 15 12 14 76 -5z m501 10 c19 -5 20 -9 11 -35 -5 -16 -16 -29
-23 -29 -7 0 -27 -3 -45 -6 l-32 -7 21 42 c22 42 29 45 68 35z m668 -44 c-8
-13 -74 -32 -90 -26 -29 11 -15 33 28 43 41 9 73 0 62 -17z m175 16 c0 -2 3
-11 6 -20 5 -13 -1 -16 -27 -15 -28 0 -31 2 -14 9 l20 9 -20 0 c-17 1 -17 3
-5 11 15 10 40 13 40 6z m528 -40 l21 -45 -33 -20 c-18 -12 -38 -21 -44 -21
-9 0 -52 80 -52 96 0 7 55 33 71 34 8 0 25 -20 37 -44z m152 34 c-8 -5 -19
-10 -25 -10 -5 0 -3 5 5 10 8 5 20 10 25 10 6 0 3 -5 -5 -10z m-2800 -9 c0
-21 -31 -81 -43 -81 -6 0 -12 -10 -12 -22 -1 -13 -4 -34 -8 -48 -7 -21 -5 -20
9 5 9 17 18 32 20 34 5 6 64 -21 64 -29 0 -8 -30 -82 -35 -88 -6 -6 -65 29
-65 38 0 5 -6 7 -14 4 -8 -3 -17 0 -21 6 -9 14 76 190 92 190 7 0 13 -4 13 -9z
m913 -2 c31 -8 36 -13 28 -28 -10 -18 -23 -20 -78 -7 -36 8 -36 8 -27 30 7 19
25 20 77 5z m-635 -10 l31 -11 -17 -36 c-26 -57 -36 -64 -66 -50 -14 6 -26 15
-26 20 0 10 39 88 44 88 2 0 17 -5 34 -11z m1552 -8 c12 -23 9 -25 -43 -39
-32 -9 -38 -8 -47 8 -16 29 -12 38 18 43 54 8 61 7 72 -12z m1009 -47 c-17
-21 -28 -17 -40 13 -8 22 -7 30 8 40 15 12 19 10 31 -13 10 -20 11 -29 1 -40z
m-2789 41 c35 -18 35 -17 15 -55 -9 -17 -13 -30 -11 -30 3 0 12 14 21 30 16
30 16 30 48 14 55 -28 58 -33 41 -65 -8 -16 -10 -29 -4 -29 5 0 12 11 16 25 7
29 24 32 54 7 18 -15 20 -21 11 -44 -8 -20 -15 -26 -28 -21 -15 5 -15 3 2 -11
20 -17 20 -17 -5 -11 -14 4 -32 15 -41 25 -9 11 -19 16 -23 13 -7 -7 -96 39
-96 49 0 5 -8 8 -17 8 -10 0 -27 7 -37 15 -19 14 -19 16 -1 55 10 22 20 40 22
40 2 0 17 -7 33 -15z m978 0 c17 -4 32 -10 32 -13 -1 -10 -26 -42 -33 -42 -4
0 -4 8 0 18 5 16 5 16 -8 0 -16 -19 -69 -14 -69 7 0 27 13 45 29 41 9 -2 31
-7 49 -11z m-618 -4 c0 -5 -7 -25 -16 -46 -8 -20 -13 -40 -10 -43 3 -2 9 4 12
14 29 82 31 84 73 84 46 0 47 -1 26 -61 -9 -23 -12 -39 -8 -35 4 4 15 26 23
49 13 34 20 41 47 44 39 5 48 -8 33 -53 -7 -19 -9 -38 -6 -41 3 -3 11 15 18
41 12 46 12 46 56 46 48 0 46 5 26 -69 -5 -16 -4 -22 4 -18 5 4 13 25 17 47 7
42 16 47 60 30 23 -9 25 -14 20 -47 l-5 -38 12 31 c11 25 17 29 38 24 19 -4
26 -13 28 -37 l3 -32 -189 1 c-104 0 -193 -2 -198 -4 -5 -3 -18 -4 -29 -1 -11
2 -42 4 -70 4 l-50 1 2 51 c1 29 2 55 2 60 1 10 81 9 81 -2z m1310 -11 c15
-27 7 -36 -37 -45 -29 -5 -40 -3 -50 11 -26 36 -13 50 49 53 18 1 31 -6 38
-19z m614 -12 c7 -18 16 -42 20 -52 3 -10 9 -17 11 -14 3 3 -2 24 -10 48 -8
23 -15 44 -15 46 0 2 20 4 45 4 44 0 45 -1 66 -50 12 -28 24 -49 26 -46 2 2
-3 21 -11 41 -22 52 -21 55 22 55 34 0 39 -4 61 -50 27 -54 27 -55 -9 -64 -24
-7 -24 -6 -6 9 19 15 19 15 -7 13 -15 -1 -27 -8 -27 -16 0 -7 -4 -11 -9 -7 -5
3 -12 1 -15 -3 -8 -13 -96 -11 -96 1 0 7 -4 7 -12 -1 -23 -23 -80 -13 -89 17
-3 9 -13 1 -29 -22 -13 -20 -28 -33 -33 -30 -5 3 -7 0 -5 -8 6 -16 -28 -69
-45 -69 -14 0 -57 41 -57 54 0 6 9 22 19 35 18 23 18 23 47 5 l29 -18 -20 23
c-12 15 -16 25 -9 28 6 2 20 10 30 18 18 14 17 14 -8 5 -31 -10 -33 -8 -43 38
l-7 32 41 0 c38 0 42 -3 48 -30 3 -16 10 -30 15 -30 6 0 8 6 5 13 -3 6 -8 20
-12 29 -5 12 0 18 17 21 51 10 59 7 72 -25z m-1181 5 c11 -6 9 -17 -9 -39 -14
-18 -15 -18 -4 4 7 13 9 26 6 29 -3 3 -11 -6 -17 -21 -13 -27 -20 -30 -55 -20
-19 5 -20 9 -11 35 10 27 14 29 47 23 19 -4 38 -9 43 -11z m461 -12 c19 -35
13 -41 -39 -41 -35 0 -44 4 -53 25 -16 34 -16 33 16 38 56 8 62 7 76 -22z
m526 3 c16 -42 12 -61 -14 -68 -13 -3 -31 -8 -38 -11 -11 -4 -17 7 -25 42 -13
54 -7 63 40 63 20 0 30 -7 37 -26z m-91 -30 c7 -26 10 -48 8 -50 -6 -6 -76 -8
-81 -3 -2 2 -7 24 -10 49 -5 33 -4 41 3 30 9 -13 11 -13 11 3 0 12 8 17 29 17
26 0 30 -5 40 -46z m-811 28 c21 -7 22 -8 7 -29 -12 -16 -26 -23 -51 -23 l-35
0 16 30 c16 31 23 33 63 22z m711 -23 c20 -57 18 -58 -74 -58 -48 0 -85 4 -85
9 0 6 5 10 10 10 6 0 10 7 10 15 0 9 10 19 23 24 18 7 23 4 30 -15 7 -21 11
-22 23 -10 8 8 14 21 14 29 0 38 35 35 49 -4z m819 7 c11 -25 0 -46 -23 -46
-19 0 -36 45 -22 59 17 17 33 13 45 -13z m82 -11 c-7 -8 -18 -15 -24 -15 -6 0
-2 7 8 15 25 19 32 19 16 0z m-1922 -35 c21 0 24 -2 12 -10 -19 -12 -70 -13
-70 -1 0 5 3 17 6 26 6 16 8 16 16 1 5 -9 21 -16 36 -16z m22 14 c0 -2 -11 -4
-25 -4 -14 0 -25 4 -25 9 0 4 11 6 25 3 14 -2 25 -6 25 -8z m365 6 c3 -5 -3
-10 -15 -10 -12 0 -18 5 -15 10 3 6 10 10 15 10 5 0 12 -4 15 -10z m1380 -20
c8 -16 15 -34 15 -39 0 -13 -78 -54 -89 -46 -5 3 -11 1 -13 -4 -1 -4 -14 -11
-28 -15 -19 -6 -21 -5 -10 3 13 9 13 11 0 11 -12 0 -15 8 -12 35 5 42 16 44
36 8 17 -32 20 -26 6 12 -9 23 -6 28 23 45 43 27 54 25 72 -10z m-925 10 c0
-5 -10 -10 -22 -10 -19 0 -20 2 -8 10 19 13 30 13 30 0z m1118 -22 c11 -29 10
-35 -5 -45 -25 -19 -29 -17 -40 20 -8 28 -7 36 6 45 24 16 25 15 39 -20z
m-112 7 c-11 -8 -25 -15 -30 -15 -6 1 0 7 14 15 32 19 40 18 16 0z m-1759 -1
c-3 -3 -12 -4 -19 -1 -8 3 -5 6 6 6 11 1 17 -2 13 -5z m751 -11 c-10 -2 -26
-2 -35 0 -10 3 -2 5 17 5 19 0 27 -2 18 -5z m340 -32 c-7 -12 -16 -21 -20 -21
-5 0 -8 -6 -8 -12 0 -7 -11 -26 -24 -43 l-24 -30 -26 24 c-24 22 -24 25 -10
52 15 31 41 37 63 17 11 -11 13 -10 8 4 -4 12 2 19 21 26 34 12 37 9 20 -17z
m702 -41 c-25 -16 -38 -11 -45 17 -5 20 -2 31 12 40 16 12 19 10 33 -17 12
-27 12 -32 0 -40z m-2720 40 c22 -11 40 -27 40 -35 0 -11 -17 -59 -26 -73 -5
-8 -94 38 -94 47 0 12 32 81 37 81 2 0 22 -9 43 -20z m573 -20 l-2 -35 13 35
c11 31 17 35 54 38 l42 3 -6 -33 c-3 -18 -7 -38 -9 -45 -4 -13 -295 -17 -295
-4 0 4 5 22 11 40 10 28 15 31 53 31 42 0 42 0 39 -32 l-3 -33 10 32 c10 32
24 40 70 39 22 -1 25 -5 23 -36z m185 -2 c-3 -42 -4 -43 -40 -46 -41 -3 -43 0
-32 57 6 27 10 31 41 31 34 0 34 0 31 -42z m104 10 l1 -33 4 33 c4 30 7 32 44
32 39 0 39 0 39 -40 l0 -40 -67 1 c-38 1 -72 0 -78 -1 -24 -6 -35 2 -35 24 0
45 10 56 51 56 37 0 39 -2 41 -32z m127 15 c1 11 9 17 26 17 20 0 25 -5 25
-25 0 -14 5 -25 10 -25 6 0 10 8 10 18 0 13 2 14 9 4 6 -10 10 -9 14 7 3 15
13 21 31 21 21 0 26 -5 26 -25 0 -34 20 -32 21 3 l1 27 8 -30 8 -30 1 28 c1
20 6 27 20 27 17 0 19 -4 10 -32 -5 -18 -9 -34 -9 -36 0 -1 -15 -3 -32 -3 -18
0 -49 -1 -68 -3 -19 -2 -41 1 -47 7 -9 6 -13 6 -13 -2 0 -6 -17 -11 -40 -11
-43 0 -47 8 -33 59 6 23 7 23 14 5 7 -16 8 -17 8 -1z m516 -16 c7 -22 7 -22
13 -2 5 15 17 21 45 23 36 3 37 3 37 -32 0 -34 -2 -36 -34 -36 -19 0 -38 5
-41 10 -4 6 -12 7 -22 1 -24 -13 -53 -1 -59 25 -3 12 -3 27 0 32 10 16 54 1
61 -21z m185 16 c0 -10 5 -25 11 -33 8 -12 9 -8 7 15 -3 27 0 30 31 33 18 2
38 -1 44 -7 8 -8 0 -11 -27 -11 -37 0 -38 -1 -33 -29 l6 -29 -57 2 -57 1 -3
38 -3 37 40 0 c32 0 41 -4 41 -17z m500 -14 c0 -27 -3 -30 -22 -23 l-23 6 23
-25 c25 -27 24 -55 -3 -77 -11 -9 -21 -7 -45 10 l-30 22 20 26 c12 15 30 42
42 60 25 40 38 41 38 1z m-1823 -19 c-10 -35 -15 -40 -42 -41 -30 -1 -58 1
-62 5 -1 1 3 19 9 39 11 36 13 37 58 37 l47 0 -10 -40z m1927 16 c3 -13 9 -31
12 -40 5 -13 -1 -16 -33 -16 -33 0 -42 4 -51 25 -21 45 -16 55 27 55 33 0 40
-4 45 -24z m99 17 c-9 -3 -8 -11 3 -29 21 -32 11 -54 -23 -54 -36 0 -49 9 -62
43 -17 44 -14 47 41 46 29 -2 47 -4 41 -6z m-506 -30 c-14 -14 -18 -14 -33 -2
-16 13 -15 14 12 20 37 7 42 3 21 -18z m-107 11 c0 -3 -10 -18 -22 -32 -11
-15 -18 -19 -15 -10 3 10 2 20 -3 23 -18 11 -10 25 15 25 14 0 25 -3 25 -6z
m69 -18 l23 -25 -22 -31 -23 -32 -30 30 c-29 30 -30 31 -13 56 21 32 36 33 65
2z m800 -6 c8 -23 7 -32 -2 -35 -7 -2 -25 -9 -40 -15 -23 -8 -32 -6 -49 10
-25 23 -26 21 27 48 52 27 51 27 64 -8z m-2834 10 c3 -5 2 -10 -4 -10 -5 0
-13 5 -16 10 -3 6 -2 10 4 10 5 0 13 -4 16 -10z m292 -28 c19 -11 21 -18 12
-34 -8 -15 -17 -18 -37 -14 l-27 6 25 -16 25 -15 -25 5 c-14 3 -31 6 -37 6
-17 0 -16 13 2 56 10 24 19 33 27 28 7 -4 23 -14 35 -22z m-220 -18 c-7 -7
-57 18 -57 28 0 5 14 1 31 -7 17 -9 29 -19 26 -21z m2157 2 l30 -23 -23 -36
c-12 -21 -26 -37 -29 -37 -4 0 -20 12 -36 26 l-29 26 18 34 c21 40 30 42 69
10z m-858 -34 c-12 -34 -42 -53 -40 -24 1 6 2 23 3 36 0 14 8 26 19 29 28 6
31 -1 18 -41z m-246 -2 l0 -40 -92 1 c-51 0 -95 0 -98 -1 -3 -1 -18 -4 -35 -6
-43 -6 -56 6 -49 44 6 29 10 32 45 32 35 0 39 -2 40 -27 l2 -28 4 28 c4 25 8
27 49 27 41 0 44 -2 45 -27 2 -28 2 -28 6 -3 6 30 19 40 56 40 25 0 27 -3 27
-40z m98 3 c-3 -37 -4 -38 -45 -41 -46 -3 -51 4 -37 56 5 18 13 22 46 22 l39
0 -3 -37z m98 15 c-3 -13 -6 -31 -6 -40 0 -14 -9 -18 -40 -18 l-40 0 0 40 0
40 46 0 c43 0 46 -2 40 -22z m301 -15 c-3 -10 -5 -4 -5 12 0 17 2 24 5 18 2
-7 2 -21 0 -30z m74 10 l2 -28 4 28 c4 26 7 28 46 25 34 -2 42 -7 48 -28 l7
-25 1 28 c1 25 4 27 41 27 33 0 40 -3 40 -19 0 -11 5 -23 11 -27 8 -4 9 0 4
15 -4 12 -2 21 4 21 6 0 11 -8 11 -17 1 -17 2 -17 15 0 13 18 14 18 39 0 35
-25 37 -35 14 -71 -26 -41 -34 -40 -43 5 -5 27 -9 33 -16 22 -7 -12 -10 -12
-18 0 -6 9 -11 10 -15 2 -9 -15 -69 -14 -84 1 -9 9 -12 9 -12 0 0 -8 -22 -11
-70 -10 -75 1 -90 11 -90 57 0 17 6 21 30 21 26 0 30 -4 31 -27z m397 8 c27
-23 27 -38 2 -71 l-19 -25 -27 26 c-26 27 -26 27 -8 58 21 36 22 36 52 12z
m626 3 c10 -26 7 -32 -23 -42 -24 -8 -31 -7 -35 5 -10 25 -7 33 17 43 31 12
34 12 41 -6z m-2599 -12 c-3 -3 -11 0 -18 7 -9 10 -8 11 6 5 10 -3 15 -9 12
-12z m515 -6 c0 -48 -9 -56 -61 -56 -27 0 -49 2 -49 4 0 25 26 65 43 68 63 9
67 8 67 -16z m101 -11 c-5 -43 -7 -45 -57 -45 -42 0 -45 2 -39 23 4 12 9 29
11 38 3 12 16 16 47 15 41 -1 42 -2 38 -31z m104 3 c-10 -47 -12 -48 -56 -48
-41 0 -46 8 -33 58 5 19 13 22 51 22 l45 0 -7 -32z m-475 7 c0 -8 -7 -15 -15
-15 -9 0 -12 6 -9 15 4 8 10 15 15 15 5 0 9 -7 9 -15z m159 -17 c-5 -18 -9
-34 -9 -35 0 -2 -20 -3 -45 -3 -47 0 -50 4 -39 48 5 19 13 22 54 22 l49 0 -10
-32z m1985 16 c13 -35 7 -44 -34 -44 -22 0 -40 3 -40 8 0 4 -3 17 -6 30 -6 20
-3 22 34 22 27 0 42 -5 46 -16z m96 2 c0 -8 -7 -17 -16 -20 -8 -3 -12 -10 -9
-16 4 -6 -5 -10 -20 -10 -18 0 -28 7 -35 26 -6 14 -10 27 -10 30 0 2 20 4 45
4 32 0 45 -4 45 -14z m-200 -43 c0 -29 -13 -36 -35 -19 -17 13 -17 14 1 38 20
28 34 20 34 -19z m-2220 27 c8 -5 11 -10 5 -10 -5 0 -17 5 -25 10 -8 5 -10 10
-5 10 6 0 17 -5 25 -10z m2117 -12 c30 -28 29 -37 -6 -76 -16 -17 -32 -40 -35
-49 -4 -10 -14 -29 -24 -41 l-19 -24 -28 24 c-27 24 -27 25 -11 55 19 39 34
49 49 34 19 -19 31 -12 12 9 -16 18 -16 20 5 55 12 19 24 35 28 35 3 0 16 -10
29 -22z m-1950 -4 c-3 -3 -12 -4 -19 -1 -8 3 -5 6 6 6 11 1 17 -2 13 -5z
m1813 -16 c36 -26 37 -35 7 -76 l-24 -31 -31 32 -31 32 20 33 c12 17 23 32 25
32 3 0 18 -10 34 -22z m640 12 c0 -5 -5 -10 -11 -10 -5 0 -7 5 -4 10 3 6 8 10
11 10 2 0 4 -4 4 -10z m-761 -34 l23 -24 -24 -36 -25 -36 -26 28 -26 27 20 33
c25 38 29 39 58 8z m785 9 c-4 -8 -8 -15 -10 -15 -2 0 -4 7 -4 15 0 8 4 15 10
15 5 0 7 -7 4 -15z m-1703 -35 l6 -35 2 38 c1 36 2 37 41 37 39 0 40 -1 41
-37 l1 -38 10 38 c9 35 12 37 49 37 l39 0 0 -46 0 -45 -47 2 c-27 1 -55 -2
-64 -5 -19 -8 -58 -4 -76 7 -8 5 -13 4 -13 -2 0 -6 -18 -11 -40 -11 -24 0 -40
5 -40 12 0 9 -3 9 -12 0 -7 -7 -28 -12 -48 -12 -20 0 -41 5 -48 12 -9 9 -12 9
-12 0 0 -7 -15 -12 -38 -12 -21 0 -43 5 -50 12 -9 9 -12 9 -12 0 0 -8 -17 -12
-45 -12 -48 0 -50 3 -39 59 6 29 9 31 50 31 43 0 44 -1 45 -32 l1 -33 7 30 c5
27 10 30 49 33 41 3 42 3 44 -30 l1 -33 4 33 c4 31 6 32 49 32 43 0 44 -1 46
-32 l1 -33 4 32 c4 33 19 42 63 40 20 -2 26 -9 31 -37z m217 3 c-14 -52 -18
-53 -18 -5 0 30 4 42 14 42 12 0 12 -7 4 -37z m360 -10 l3 -41 -35 1 c-36 1
-52 17 -18 17 11 0 13 3 5 8 -6 4 -12 14 -13 22 -5 34 0 41 28 38 24 -3 27 -8
30 -45z m92 30 c0 -10 5 -25 11 -33 8 -12 9 -7 6 18 -4 32 -3 32 40 32 40 0
43 -2 44 -27 l2 -28 4 28 c7 47 33 26 33 -27 0 -22 -4 -23 -67 -24 -38 -1 -87
-4 -110 -8 l-43 -7 0 47 0 46 40 0 c31 0 40 -4 40 -17z m738 -5 l11 -23 0 23
c1 17 7 22 25 22 29 0 40 -13 31 -39 -4 -15 -17 -18 -75 -19 -39 -1 -70 2 -70
6 0 4 -3 17 -6 30 -6 20 -3 22 33 22 32 0 42 -5 51 -22z m207 12 c-3 -5 -20
-14 -38 -20 l-32 -10 30 4 c17 2 39 7 50 11 l20 8 -20 -16 c-11 -9 -32 -17
-47 -17 -19 0 -28 -5 -28 -16 0 -13 3 -14 13 -5 10 8 14 7 14 -4 0 -8 -4 -12
-9 -9 -4 3 -8 0 -8 -6 0 -6 -4 -8 -10 -5 -5 3 -10 21 -10 39 0 27 5 33 33 43
44 14 49 15 42 3z m-2525 -29 c0 -5 10 -7 23 -4 18 4 19 3 7 -7 -12 -8 -6 -10
25 -5 29 4 35 3 20 -4 -20 -10 -20 -10 0 -10 20 -1 20 -5 13 -88 -3 -49 -8
-112 -9 -140 -1 -29 -6 -53 -11 -53 -5 0 -4 -9 2 -19 7 -14 5 -65 -6 -173 -8
-84 -14 -169 -13 -188 3 -43 -6 -61 -28 -53 -14 6 -14 2 3 -20 23 -32 34 -34
29 -7 -2 11 0 20 6 20 5 0 7 -11 5 -24 -5 -28 18 -56 27 -34 4 8 6 7 6 -4 1
-19 21 -26 21 -7 0 5 5 7 10 4 6 -3 10 -1 10 6 0 7 3 9 6 6 4 -4 2 -13 -4 -20
-9 -10 -9 -14 1 -14 6 0 21 -4 32 -8 20 -7 20 -6 1 9 -11 9 -15 16 -9 16 13 0
31 -21 31 -35 0 -5 -6 -18 -13 -29 -16 -22 -9 -46 13 -46 8 0 12 -3 9 -7 -4
-3 -2 -12 3 -18 8 -9 2 -16 -20 -25 -34 -14 -38 -34 -13 -62 21 -24 36 -23 23
1 -13 26 -13 31 3 25 15 -6 21 -54 6 -54 -5 0 -7 -4 -4 -10 3 -5 0 -19 -8 -31
-9 -13 -16 -16 -19 -8 -2 6 -13 12 -23 13 -43 4 -105 30 -110 46 -8 25 -46 32
-67 13 -14 -12 -25 -14 -50 -7 -31 9 -33 13 -36 61 -2 28 6 86 18 131 16 66
20 112 20 259 1 248 17 593 30 607 5 7 6 16 2 21 -4 4 3 2 16 -4 12 -6 22 -16
22 -20z m285 -8 c-8 -46 -20 -62 -43 -58 -9 2 -26 4 -37 5 l-20 1 20 9 c11 5
14 9 7 9 -9 1 -8 8 4 26 11 17 12 25 5 25 -7 0 -9 5 -6 10 3 6 22 10 42 10
l35 0 -7 -37z m115 8 c0 -53 -8 -61 -62 -61 l-50 0 7 37 c9 52 11 53 61 53 42
0 44 -1 44 -29z m104 -8 c-9 -53 -10 -53 -60 -53 -43 0 -44 1 -38 28 14 63 13
62 60 62 l45 0 -7 -37z m1650 18 c14 -16 15 -24 6 -40 -6 -12 -8 -25 -5 -30 8
-14 -6 -42 -17 -35 -5 3 -8 0 -6 -7 3 -15 -39 -89 -51 -89 -4 0 -20 13 -35 29
l-28 30 22 35 c12 20 24 36 26 36 3 0 17 -8 32 -17 l27 -17 -24 26 -23 27 22
35 c25 41 31 43 54 17z m465 -50 c14 -12 13 -12 -8 -6 -18 5 -22 4 -16 -6 5
-7 9 -49 10 -93 3 -85 14 -297 19 -356 2 -19 8 -36 15 -38 19 -6 12 -28 -19
-55 -25 -22 -39 -27 -84 -27 -31 0 -58 5 -62 12 -4 7 -3 8 4 4 13 -8 17 108 5
140 -6 16 -7 16 -14 -2 -6 -14 -8 -10 -8 16 -1 26 2 31 9 20 6 -10 9 30 8 120
-2 131 -2 132 -5 30 -2 -60 -9 -109 -15 -115 -7 -7 -9 -7 -5 1 3 6 7 75 8 154
2 79 4 139 7 132 7 -22 23 -12 17 11 -5 17 -4 19 4 7 10 -14 15 -7 12 13 -1 5
3 6 8 2 15 -9 73 24 65 37 -4 7 -3 8 4 4 8 -5 12 1 13 16 0 15 3 18 6 8 3 -8
13 -21 22 -29z m-695 -27 c2 -7 -8 -27 -24 -45 l-28 -34 -26 24 c-31 30 -32
44 -5 82 l21 29 28 -22 c16 -13 31 -28 34 -34z m-1800 -53 c-6 -41 -8 -43 -15
-21 -4 14 -7 34 -7 45 0 16 2 15 8 -5 6 -20 9 -14 11 30 1 35 4 44 6 26 3 -17
1 -50 -3 -75z m2056 74 c-7 -9 -15 -13 -18 -10 -3 2 1 11 8 20 7 9 15 13 18
10 3 -2 -1 -11 -8 -20z m350 21 c0 -3 -4 -8 -10 -11 -5 -3 -10 -1 -10 4 0 6 5
11 10 11 6 0 10 -2 10 -4z m-740 -54 c0 -7 -8 -25 -17 -39 l-17 -26 -7 24 c-4
13 -7 39 -8 57 l-1 33 25 -18 c13 -10 25 -24 25 -31z m547 31 c2 -6 -6 -13
-19 -16 -20 -4 -20 -4 5 -6 51 -2 24 -31 -29 -31 -23 0 -44 30 -44 61 0 14 83
7 87 -8z m43 7 c0 -5 -7 -10 -15 -10 -8 0 -15 5 -15 10 0 6 7 10 15 10 8 0 15
-4 15 -10z m-165 -88 c-10 -10 -15 -12 -11 -5 4 7 -2 18 -13 25 -19 12 -19 12
2 42 l21 30 9 -38 c8 -31 6 -41 -8 -54z m-530 38 c0 -34 -1 -35 -42 -38 -43
-3 -43 -3 -43 32 0 37 12 46 60 43 22 -2 25 -7 25 -37z m43 2 c2 -24 -1 -32
-12 -32 -12 0 -16 10 -16 36 0 45 24 42 28 -4z m-238 2 c0 -14 4 -23 9 -20 5
3 7 15 4 26 -5 18 0 20 41 20 46 0 46 0 46 -35 l0 -34 -77 1 c-51 1 -69 4 -53
9 l25 7 -27 1 c-21 1 -28 6 -28 20 0 18 14 27 48 30 7 0 12 -10 12 -25z m1137
-6 c-3 -7 -5 -2 -5 12 0 14 2 19 5 13 2 -7 2 -19 0 -25z m-2141 -15 c-3 -21
-5 -40 -6 -42 0 -2 -25 -1 -55 1 -31 3 -58 2 -60 -2 -7 -11 -109 6 -143 24
-45 23 -42 46 7 46 36 0 38 -2 35 -27 l-4 -28 11 28 c10 24 16 27 60 27 47 0
49 -1 50 -27 1 -21 2 -23 6 -8 7 29 32 45 71 45 33 0 34 0 28 -37z m112 12
c-3 -13 -1 -22 3 -19 5 3 9 14 9 25 0 16 7 19 45 19 42 0 45 -2 46 -27 l2 -28
4 28 c4 25 8 27 49 27 41 0 44 -2 44 -26 0 -14 4 -23 10 -19 6 3 10 15 10 26
0 16 7 19 40 19 37 0 40 -2 41 -27 l2 -28 4 28 c4 25 8 27 49 27 41 0 44 -2
45 -27 l2 -28 4 28 c4 25 8 27 50 27 37 0 44 -3 39 -16 -3 -9 -6 -27 -6 -40 0
-21 -4 -24 -40 -24 -24 0 -40 5 -40 12 0 9 -3 9 -12 0 -16 -16 -88 -16 -89 1
0 10 -2 10 -6 0 -6 -16 -75 -17 -91 -1 -9 9 -12 9 -12 0 0 -8 -17 -12 -45 -12
-28 0 -45 4 -45 12 0 9 -3 9 -12 0 -16 -16 -98 -16 -99 1 0 10 -2 10 -6 0 -3
-8 -24 -13 -54 -13 -49 0 -49 0 -43 28 11 51 12 52 60 52 44 0 46 -1 42 -25z
m1371 -9 c25 -27 23 -45 -9 -86 l-19 -25 -26 28 -26 27 22 40 c13 22 26 40 29
40 4 0 17 -11 29 -24z m-126 -24 l27 -28 -26 -37 c-13 -20 -29 -37 -34 -37 -5
0 -7 -14 -5 -31 5 -34 15 -53 15 -27 0 13 7 14 43 7 23 -4 45 -8 50 -9 14 0 7
-28 -9 -34 -28 -11 -84 -7 -85 7 0 10 -2 10 -6 0 -3 -8 -24 -13 -54 -13 l-49
0 0 45 c0 44 1 45 33 46 l32 2 -30 4 c-16 3 -36 9 -42 15 -9 7 -13 7 -13 -2 0
-7 -15 -11 -45 -9 -24 2 -47 0 -51 -4 -4 -4 -25 -7 -46 -7 l-38 0 0 45 c0 36
3 45 18 45 9 0 27 3 40 6 20 6 22 3 22 -30 0 -20 5 -36 11 -36 6 0 9 14 7 33
-3 31 -2 32 40 35 41 3 42 3 44 -30 l1 -33 4 33 c6 47 40 45 49 -3 3 -19 10
-33 14 -30 5 3 11 1 15 -5 3 -5 11 -10 17 -10 6 0 2 10 -10 23 -12 13 -22 27
-22 31 0 12 40 66 49 66 4 0 19 -13 34 -28z m519 -27 l3 -45 -45 0 -45 0 0 45
0 45 41 0 42 0 4 -45z m268 25 c0 -11 -2 -20 -4 -20 -2 0 -6 9 -9 20 -3 11 -1
20 4 20 5 0 9 -9 9 -20z m-455 -16 c15 -11 17 -18 9 -31 -20 -31 -42 -39 -60
-21 -16 16 -16 18 0 42 19 30 24 31 51 10z m-685 -40 c0 -13 -2 -24 -4 -24 -2
0 -11 -3 -19 -6 -10 -4 -16 4 -19 25 -3 22 0 31 11 34 24 5 31 -2 31 -29z
m554 12 c23 -19 26 -27 18 -43 -6 -11 -19 -26 -28 -34 -15 -12 -15 -10 1 16
l19 30 -20 -18 c-13 -11 -28 -15 -39 -11 -14 6 -16 4 -10 -7 8 -12 6 -12 -8 0
-22 17 -21 27 4 62 24 35 26 35 63 5z m-1461 -26 l-2 -35 9 29 c11 36 26 46
68 46 l33 0 -3 -47 -3 -48 -47 -3 c-34 -2 -48 1 -48 9 0 10 -3 10 -12 1 -16
-16 -95 -16 -102 1 -5 10 -7 10 -12 0 -3 -8 -24 -13 -50 -13 -47 0 -49 3 -38
59 6 29 9 31 54 31 l47 0 -4 -32 -3 -33 10 32 c11 34 27 42 75 40 28 -2 30 -5
28 -37z m215 -6 c-3 -44 -5 -47 -33 -50 -52 -6 -65 3 -65 45 0 21 3 41 7 44 3
4 26 7 50 7 l44 0 -3 -46z m100 11 c-2 -19 0 -35 4 -35 4 0 8 16 8 35 0 34 1
35 40 35 l40 0 0 -44 0 -45 -90 0 -90 0 0 45 0 44 46 0 46 0 -4 -35z m182 29
c0 -4 -5 -24 -12 -45 -10 -34 -15 -39 -41 -39 -26 0 -29 3 -23 23 3 12 6 32 6
45 0 19 5 22 35 22 19 0 35 -3 35 -6z m-845 -33 c-8 -31 -4 -28 -38 -36 -25
-7 -27 -5 -27 22 0 37 5 42 42 41 27 -1 29 -4 23 -27z m131 7 c-3 -13 -6 -33
-6 -45 0 -21 -5 -23 -55 -23 -54 0 -55 0 -55 29 0 54 8 61 67 61 52 0 55 -1
49 -22z m1544 -3 c22 -23 22 -25 6 -50 -18 -28 -31 -34 -22 -9 4 10 2 13 -6 7
-17 -10 -48 -11 -54 -2 -5 9 37 79 47 79 3 0 16 -11 29 -25z m727 -82 c-2 -21
-4 -4 -4 37 0 41 2 58 4 38 2 -21 2 -55 0 -75z m-260 53 c1 -1 4 -13 8 -29 7
-27 6 -27 -39 -27 -25 0 -46 -4 -46 -10 0 -5 -7 -7 -15 -4 -8 4 -15 1 -15 -5
0 -8 -19 -11 -57 -9 -53 3 -58 5 -61 27 -5 31 31 60 75 61 28 0 34 -5 43 -32
l10 -33 -5 32 c-3 24 0 33 13 36 13 4 81 -2 89 -7z m-887 -6 c0 -5 -8 -10 -17
-10 -15 0 -16 2 -3 10 19 12 20 12 20 0z m599 -16 c-17 -21 -31 -17 -17 5 7
11 16 17 20 14 5 -2 4 -11 -3 -19z m-1969 -56 c0 -34 -2 -59 -4 -57 -8 10 -13
129 -5 123 5 -3 9 -33 9 -66z m1576 38 c3 -13 4 -35 2 -47 -2 -20 -10 -25 -42
-27 -24 -2 -42 2 -47 10 -7 10 -9 10 -9 1 0 -8 -14 -13 -34 -13 -35 0 -46 15
-46 68 0 21 4 23 37 20 33 -3 39 -7 44 -33 l7 -30 1 32 c1 24 6 33 24 36 48 9
57 7 63 -17z m260 -4 c-22 -5 -30 3 -21 18 5 8 11 7 22 -2 15 -12 14 -13 -1
-16z m-1743 11 c-7 -2 -21 -2 -30 0 -10 3 -4 5 12 5 17 0 24 -2 18 -5z m776
-43 l4 -35 6 34 c5 26 12 35 29 38 23 3 23 1 17 -39 -8 -46 -22 -63 -41 -47
-8 7 -14 6 -19 -1 -9 -14 -68 -13 -83 2 -9 9 -12 9 -12 0 0 -7 -16 -12 -40
-12 -24 0 -40 5 -40 12 0 9 -3 9 -12 0 -16 -16 -108 -16 -109 1 0 10 -2 10 -6
0 -3 -8 -24 -13 -54 -13 l-50 0 3 43 3 42 47 3 c46 3 47 3 51 -30 l3 -33 8 33
c8 31 11 32 57 32 48 0 49 0 51 -32 l1 -33 4 33 c4 30 7 32 44 32 37 0 39 -2
40 -32 1 -28 2 -29 6 -8 6 32 24 46 60 45 24 0 29 -4 32 -35z m501 10 c0 -16
-4 -30 -10 -30 -5 0 -10 3 -10 8 0 4 -3 17 -6 30 -5 16 -2 22 10 22 11 0 16
-9 16 -30z m652 6 c5 -26 -11 -36 -64 -36 -38 0 -35 11 10 37 47 28 49 28 54
-1z m-1791 -23 l2 -38 6 35 c6 34 8 35 54 38 43 3 47 1 47 -20 -1 -66 -2 -67
-118 -66 -66 0 -97 3 -82 8 14 5 19 8 12 9 -7 1 -11 5 -7 10 3 5 1 12 -5 16
-7 4 -7 12 0 26 8 14 21 19 50 19 39 0 40 -1 41 -37z m219 -8 l0 -45 -56 0
c-47 0 -55 3 -50 16 3 9 6 29 6 45 0 28 1 29 50 29 l50 0 0 -45z m-350 28 c-1
-35 -52 -43 -58 -10 -3 13 3 17 27 17 17 0 31 -3 31 -7z m2163 -10 c-13 -2
-35 -2 -50 0 -16 2 -5 4 22 4 28 0 40 -2 28 -4z m-343 -13 c0 -5 -22 -10 -49
-10 -28 0 -53 5 -56 10 -4 6 15 10 49 10 31 0 56 -4 56 -10z m224 -16 c26 -10
19 -34 -11 -35 l-28 -1 30 -7 c26 -6 23 -8 -25 -13 -32 -3 -60 -2 -67 4 -9 7
-13 7 -13 -1 0 -8 -19 -12 -57 -11 -32 1 -79 -2 -105 -6 l-48 -7 0 31 c0 33
13 42 66 42 28 0 34 -4 35 -22 l2 -23 4 23 c4 19 11 22 54 22 40 0 49 -3 50
-17 0 -14 2 -15 6 -3 3 8 11 18 17 22 13 9 68 10 90 2z m120 -19 c-4 -9 -19
-15 -35 -15 -19 0 -29 5 -29 15 0 10 11 15 35 15 26 0 33 -3 29 -15z m243 -7
c-3 -8 -6 -5 -6 6 -1 11 2 17 5 13 3 -3 4 -12 1 -19z m-816 -10 l2 -23 4 23
c4 20 10 22 59 22 54 0 54 0 54 -31 l0 -31 -60 4 c-33 1 -60 -1 -60 -5 0 -4
-26 -7 -57 -6 -32 1 -75 -2 -97 -6 -28 -6 -40 -4 -47 6 -6 10 -9 11 -9 2 0 -9
-16 -13 -45 -13 -25 0 -45 2 -45 5 0 4 7 19 15 35 19 38 61 41 75 8 l9 -23 0
23 c1 19 6 22 46 22 40 0 45 -3 46 -22 1 -21 2 -21 6 -3 7 27 21 35 66 35 31
0 37 -3 38 -22z m-1614 6 c-3 -3 -12 -4 -19 -1 -8 3 -5 6 6 6 11 1 17 -2 13
-5z m1298 -25 c0 -8 -12 -15 -30 -17 -30 -4 -30 -4 -11 17 21 23 41 23 41 0z
m-1050 -25 l0 -29 -110 -1 c-82 0 -96 1 -55 6 l55 7 -47 1 c-41 2 -48 5 -48
22 0 17 7 20 50 20 45 0 50 -2 51 -22 l2 -23 4 22 c3 15 13 23 31 26 54 7 67
2 67 -29z m115 1 l0 -35 -50 0 c-49 0 -50 1 -50 29 0 33 9 39 63 40 36 1 37 0
37 -34z m120 0 l0 -35 -55 0 c-48 0 -55 3 -55 19 0 42 10 51 61 51 l49 0 0
-35z m110 15 c0 -11 5 -20 10 -20 6 0 10 9 10 20 0 17 7 20 40 20 34 0 40 -3
41 -22 l2 -23 4 23 c4 19 11 22 49 22 45 0 45 0 42 -32 -3 -29 -7 -33 -36 -36
-18 -2 -40 2 -48 9 -10 8 -14 8 -14 0 0 -6 -17 -11 -40 -11 -24 0 -40 5 -40
12 0 9 -3 9 -12 0 -7 -7 -34 -12 -60 -12 l-48 0 0 35 0 35 50 0 c43 0 50 -3
50 -20z m278 0 c10 -17 10 -20 -5 -21 -16 0 -16 -1 1 -8 18 -7 18 -8 2 -14
-10 -4 -29 -7 -42 -7 -21 0 -24 5 -24 35 0 32 3 35 28 35 16 0 32 -8 40 -20z
m1295 13 c-7 -2 -19 -2 -25 0 -7 3 -2 5 12 5 14 0 19 -2 13 -5z m284 -25 c-3
-7 -5 -2 -5 12 0 14 2 19 5 13 2 -7 2 -19 0 -25z m-2447 2 c0 -11 -4 -20 -10
-20 -5 0 -10 2 -10 4 0 2 -3 11 -6 20 -4 11 -1 16 10 16 9 0 16 -8 16 -20z
m-87 -52 c6 -4 8 -10 5 -13 -14 -15 -28 8 -27 43 2 34 2 35 6 7 3 -16 10 -33
16 -37z m2039 47 c8 -9 -4 -65 -13 -59 -5 3 -41 -4 -79 -16 -97 -30 -114 -26
-118 28 l-3 42 55 0 56 0 1 -32 c1 -27 2 -28 6 -8 7 46 12 50 51 50 21 0 41
-2 44 -5z m138 -14 c0 -25 -7 -29 -58 -37 -42 -7 -42 -6 -42 25 0 31 1 31 50
31 43 0 50 -3 50 -19z m60 4 c0 -8 -4 -15 -9 -15 -5 0 -11 7 -15 15 -3 9 0 15
9 15 8 0 15 -7 15 -15z m-862 -2 c-10 -2 -28 -2 -40 0 -13 2 -5 4 17 4 22 1
32 -1 23 -4z m442 -39 l0 -46 -60 4 c-33 1 -60 -1 -60 -5 0 -5 -28 -8 -62 -7
-35 0 -80 -2 -100 -6 l-38 -6 0 46 0 46 43 0 c43 0 43 -1 39 -30 -3 -18 0 -30
7 -30 6 0 11 15 11 33 0 33 0 33 50 36 l50 2 2 -33 1 -33 4 32 c4 34 15 40 76
42 l37 1 0 -46z m717 -46 c-2 -18 -4 -6 -4 27 0 33 2 48 4 33 2 -15 2 -42 0
-60z m-1047 26 l0 -45 -50 2 c-27 2 -53 0 -56 -4 -10 -9 -72 -9 -76 1 -2 4 -1
23 3 42 3 19 7 26 8 15 2 -19 3 -18 11 3 6 15 18 22 35 22 21 0 25 -5 26 -32
l2 -33 4 30 c6 36 17 45 61 45 31 0 32 -1 32 -46z m-1045 -14 c0 -34 -1 -35
-35 -32 -57 5 -70 12 -70 37 0 26 17 34 70 32 33 -2 35 -4 35 -37z m125 -5 c0
-44 -1 -45 -32 -45 -62 0 -78 9 -78 44 0 43 5 46 62 46 l48 0 0 -45z m121 10
l7 -30 1 33 c1 31 3 32 41 32 38 0 40 -2 42 -32 l1 -33 4 33 c4 31 6 32 49 32
43 0 44 -1 46 -32 l1 -33 4 33 c4 32 6 33 46 30 35 -3 42 -6 42 -25 0 -11 3
-25 8 -29 4 -4 7 7 7 25 0 27 2 30 18 22 30 -16 63 -52 59 -64 -5 -15 -77 -18
-77 -4 0 7 -5 6 -12 -1 -16 -16 -88 -16 -88 0 0 9 -3 9 -12 0 -16 -16 -70 -16
-86 0 -9 9 -12 9 -12 0 0 -17 -80 -16 -81 1 0 10 -2 10 -6 0 -3 -8 -25 -13
-59 -13 l-54 0 0 46 0 45 52 -3 c50 -3 53 -5 59 -33z m-471 15 c0 -12 -34 -12
-70 0 -20 7 -16 8 23 9 26 1 47 -3 47 -9z m110 -15 c0 -22 -3 -24 -32 -18 -62
11 -63 43 -2 43 30 0 34 -3 34 -25z m960 5 c0 -14 -7 -20 -22 -20 -20 0 -21 1
-3 20 10 11 20 20 22 20 1 0 3 -9 3 -20z m-1290 -16 c0 -8 -5 -12 -10 -9 -6 4
-8 11 -5 16 9 14 15 11 15 -7z m1290 -26 c0 -4 -12 -8 -27 -8 -19 0 -24 3 -15
8 17 11 42 11 42 0z m490 2 c-14 -4 -36 -8 -50 -8 l-25 0 25 8 c14 4 36 8 50
8 l25 0 -25 -8z m585 -36 c1 -24 -1 -31 -6 -21 -9 15 -9 70 -1 62 3 -2 6 -21
7 -41z m-670 26 c-3 -5 -29 -10 -56 -10 -31 0 -48 4 -44 10 3 6 29 10 56 10
31 0 48 -4 44 -10z m-212 -15 c1 -5 -17 -11 -40 -13 -24 -2 -43 1 -43 7 0 20
79 26 83 6z m97 5 c0 -5 -18 -10 -40 -10 -22 0 -40 5 -40 10 0 6 18 10 40 10
22 0 40 -4 40 -10z m-290 -15 c0 -10 -11 -15 -35 -15 -40 0 -45 7 -12 20 33
13 47 12 47 -5z m100 6 c0 -11 -25 -21 -56 -21 -15 0 -24 6 -24 15 0 11 11 15
40 15 22 0 40 -4 40 -9z m-622 -8 c-10 -2 -26 -2 -35 0 -10 3 -2 5 17 5 19 0
27 -2 18 -5z m112 -3 c0 -6 -17 -10 -40 -8 -22 1 -40 6 -40 10 0 4 18 8 40 8
22 0 40 -5 40 -10z m95 0 c4 -6 -12 -10 -39 -10 -25 0 -46 5 -46 10 0 6 18 10
39 10 22 0 43 -4 46 -10z m95 0 c0 -5 -18 -10 -40 -10 -22 0 -40 5 -40 10 0 6
18 10 40 10 22 0 40 -4 40 -10z m129 -6 c2 -2 -23 -4 -57 -4 -38 0 -62 4 -62
11 0 10 108 3 119 -7z m-1201 -55 c-19 -12 -25 -11 -25 5 0 8 8 11 20 8 14 -4
16 -7 5 -13z m1506 -1 c3 -13 10 -54 15 -92 6 -37 12 -71 15 -74 3 -2 74 9
158 27 84 17 164 33 178 36 55 11 -45 -27 -134 -51 -251 -67 -548 -94 -848
-75 -245 15 -288 21 -288 37 0 16 -27 19 -32 3 -2 -7 -19 -7 -53 -1 l-50 9 42
13 c33 10 57 10 118 1 120 -18 121 -17 133 32 6 23 14 66 18 95 11 86 29 58
32 -51 l3 -96 37 -7 c43 -8 566 3 601 12 23 7 24 8 18 106 -5 91 -4 98 14 98
11 0 21 -9 23 -22z m-1532 -52 c7 4 8 2 4 -4 -13 -21 -26 -13 -25 16 2 23 2
24 6 4 3 -13 9 -19 15 -16z m28 4 c0 -16 -4 -30 -9 -30 -5 0 -7 9 -4 20 3 13
0 20 -8 20 -11 0 -11 2 1 10 20 13 20 14 20 -20z m-9 -40 c5 0 9 -8 9 -17 0
-11 -3 -14 -8 -7 -4 6 -16 16 -27 23 -17 10 -17 12 -2 7 10 -3 23 -6 28 -6z
m306 -21 c47 -8 66 -17 78 -35 19 -29 14 -29 -57 -5 -68 23 -145 64 -108 57
14 -2 53 -10 87 -17z m-280 -66 c-2 -2 -15 1 -28 6 -13 5 -18 10 -11 10 8 1
10 6 6 14 -4 6 2 3 14 -7 12 -11 20 -21 19 -23z m2391 3 c-10 -7 -15 -16 -11
-19 3 -4 2 -7 -4 -7 -22 0 -22 15 -1 27 30 16 38 16 16 -1z m74 -8 c-2 -10 1
-18 7 -18 7 0 9 5 5 12 -4 7 -3 8 5 4 6 -4 9 -12 5 -17 -3 -5 -1 -15 4 -22 13
-16 22 -107 10 -107 -4 0 -8 -5 -8 -11 0 -5 5 -7 10 -4 6 3 10 -3 10 -14 0
-12 -7 -21 -15 -21 -32 0 -94 -52 -87 -72 1 -5 -1 -7 -5 -7 -20 3 -34 -2 -29
-10 3 -5 -4 -9 -17 -8 -12 0 -35 -3 -52 -7 -22 -6 -26 -5 -15 3 14 10 7 16
-15 11 -5 -1 -2 7 8 18 9 10 17 23 17 29 0 14 -56 36 -78 31 -10 -3 -23 1 -30
9 -7 7 -18 11 -23 7 -6 -3 -3 -12 8 -20 16 -13 15 -13 -11 -2 -15 7 -23 14
-17 16 6 2 11 8 11 13 0 4 -8 5 -17 2 -14 -5 -12 0 7 25 15 19 32 30 42 28 10
-2 16 1 15 7 -1 7 18 22 43 35 25 13 44 26 43 30 -1 5 8 14 20 22 21 12 21 12
7 -5 -14 -17 -13 -17 10 -10 14 4 35 16 47 27 12 11 33 21 47 22 32 1 32 4 4
16 -21 8 -20 8 8 7 24 -2 30 -6 26 -19z m51 -23 c-3 -9 -8 -14 -10 -11 -3 3
-2 9 2 15 9 16 15 13 8 -4z m25 -47 c10 -36 9 -37 -9 -28 -10 6 -19 13 -19 16
0 3 5 2 11 -2 8 -4 9 4 4 27 -10 44 0 35 13 -13z m-2418 8 c0 -2 -9 -6 -20 -9
-11 -3 -20 -1 -20 4 0 5 9 9 20 9 11 0 20 -2 20 -4z m57 -43 l22 -41 -34 1
c-35 1 -60 -12 -37 -20 6 -3 10 -9 6 -14 -3 -5 0 -9 5 -9 6 0 11 4 11 9 0 5
10 11 22 14 19 5 20 5 5 -10 -15 -16 -64 -26 -79 -17 -4 3 0 17 10 32 16 25
16 26 -3 18 -11 -4 -16 -4 -12 0 4 4 2 13 -5 21 -15 18 -2 29 17 13 18 -15 20
1 3 18 -9 9 -8 12 5 12 9 0 17 5 17 11 0 22 25 2 47 -38z m2035 6 c-18 -12
-35 -19 -38 -16 -3 3 7 12 23 21 42 23 53 19 15 -5z m316 -34 c-3 -3 -9 2 -12
12 -6 14 -5 15 5 6 7 -7 10 -15 7 -18z m-377 -8 c-10 -9 -11 -8 -5 6 3 10 9
15 12 12 3 -3 0 -11 -7 -18z m406 -29 c-3 -8 -6 -5 -6 6 -1 11 2 17 5 13 3 -3
4 -12 1 -19z m-1114 -25 c-44 -6 -42 -23 2 -23 40 0 49 -23 13 -35 -22 -7 -21
-8 7 -14 l30 -7 -40 -7 c-22 -4 -57 -7 -77 -7 -40 0 -39 -2 -42 68 -1 18 39
30 104 29 l35 0 -32 -4z m1127 -26 c0 -4 -6 -2 -14 5 -8 7 -12 17 -9 22 5 8
23 -12 23 -27z m-73 7 c-3 -3 -12 -4 -19 -1 -8 3 -5 6 6 6 11 1 17 -2 13 -5z
m-1603 -20 c9 -8 16 -29 16 -45 l0 -29 -82 2 -83 2 70 5 c61 5 66 7 36 14 -48
10 -162 8 -136 -3 23 -10 5 -13 -19 -4 -21 8 -20 23 2 47 16 19 16 20 -5 15
-13 -4 -23 -2 -23 3 0 5 47 9 104 9 82 0 108 -3 120 -16z m1662 -36 c-17 -27
-36 -22 -35 10 l1 27 7 -25 c4 -15 10 -20 14 -13 4 6 4 19 0 29 -6 16 -5 17 9
4 12 -11 13 -19 4 -32z m-305 1 c-9 -22 -10 -22 -10 -3 -1 11 2 24 6 27 12 12
14 0 4 -24z m213 12 c4 -5 -1 -8 -9 -7 -21 3 -31 16 -12 16 9 0 18 -4 21 -9z
m39 -16 c-3 -9 -8 -14 -10 -11 -3 3 -2 9 2 15 9 16 15 13 8 -4z m-2488 -64
c-3 -2 -11 1 -17 7 -17 17 -33 15 -18 -3 17 -20 3 -19 -18 1 -33 33 -22 46 19
22 21 -12 37 -24 34 -27z m2395 39 c0 -5 -2 -10 -4 -10 -3 0 -8 5 -11 10 -3 6
-1 10 4 10 6 0 11 -4 11 -10z m-133 -32 c-16 -9 -27 0 -21 17 5 11 9 12 19 2
9 -8 10 -14 2 -19z m103 7 c-14 -16 -50 -21 -50 -6 0 5 9 7 20 4 11 -3 20 0
20 6 0 6 5 11 11 11 8 0 8 -5 -1 -15z m-78 -22 c-10 -4 -10 -8 0 -21 12 -14
10 -14 -11 -3 -19 10 -21 15 -10 22 8 5 19 8 24 8 6 0 4 -3 -3 -6z m53 -19
c-10 -8 -24 -14 -29 -13 -6 0 -5 3 3 6 10 4 10 7 1 13 -7 4 -1 8 16 8 26 0 27
-1 9 -14z m-1658 -132 c-33 -7 -67 7 -67 27 0 18 2 17 43 -3 30 -15 37 -22 24
-24z m768 8 c3 -5 -1 -10 -9 -10 -9 0 -16 5 -16 10 0 6 4 10 9 10 6 0 13 -4
16 -10z"/>
<path d="M2206 4194 c-4 -11 0 -15 16 -12 12 2 23 10 25 18 4 13 3 13 -6 0 -7
-10 -11 -11 -11 -2 0 17 -17 15 -24 -4z"/>
<path d="M2095 3980 c-3 -5 -1 -10 4 -10 6 0 11 5 11 10 0 6 -2 10 -4 10 -3 0
-8 -4 -11 -10z"/>
<path d="M2482 3783 c-52 -26 -77 -69 -77 -135 0 -42 5 -64 21 -85 48 -64 139
-85 205 -47 48 27 83 100 74 154 -17 102 -130 159 -223 113z m182 -75 c17 -24
21 -58 8 -58 -5 0 -20 18 -35 40 -24 37 -24 40 -7 40 10 0 26 -10 34 -22z
m-119 -77 c-3 -6 -11 -8 -17 -5 -6 4 -5 9 3 15 16 10 23 4 14 -10z m65 -20 c0
-11 -5 -23 -11 -27 -15 -9 -33 12 -26 30 9 23 37 20 37 -3z"/>
<path d="M3350 3778 c-53 -36 -72 -70 -73 -125 -2 -158 192 -215 281 -82 30
43 27 120 -6 166 -45 63 -141 82 -202 41z m130 -58 c22 -12 43 -67 29 -76 -6
-3 -11 -4 -13 -3 -8 12 -46 81 -46 85 0 7 10 5 30 -6z m-65 -90 c3 -5 -1 -10
-9 -10 -9 0 -16 5 -16 10 0 6 4 10 9 10 6 0 13 -4 16 -10z m73 -48 c3 -19 -1
-23 -15 -20 -10 2 -19 14 -21 26 -3 19 1 23 15 20 10 -2 19 -14 21 -26z"/>
<path d="M2963 2640 c-26 -11 -40 -48 -23 -64 8 -6 10 -6 7 0 -4 7 16 10 58
10 35 -1 61 -5 58 -9 -3 -5 3 -7 13 -5 32 6 28 36 -8 58 -35 21 -69 24 -105
10z"/>
<path d="M3717 3149 c7 -7 15 -10 18 -7 3 3 -2 9 -12 12 -14 6 -15 5 -6 -5z"/>
<path d="M1907 492 c-13 -28 -13 -31 2 -30 9 1 23 -1 31 -3 18 -5 15 29 -5 49
-10 12 -15 9 -28 -16z"/>
<path d="M4231 1414 c0 -11 3 -14 6 -6 3 7 2 16 -1 19 -3 4 -6 -2 -5 -13z"/>
<path d="M4061 601 c-8 -15 -5 -20 16 -30 22 -10 29 -9 42 5 15 15 14 16 -5 6
-25 -13 -47 -1 -38 21 8 23 -3 22 -15 -2z"/>
<path d="M2019 674 c-12 -16 -12 -17 4 -11 10 4 16 3 12 -2 -3 -5 1 -12 7 -15
7 -3 4 -4 -6 -3 -10 1 -21 -3 -23 -9 -2 -7 8 -11 25 -10 27 1 29 3 19 26 -16
38 -23 42 -38 24z"/>
<path d="M3250 120 c20 -13 200 -13 220 0 10 7 -26 10 -110 10 -84 0 -120 -3
-110 -10z"/>
<path d="M3038 108 c22 -8 42 -8 65 0 29 9 26 10 -33 10 -59 0 -62 -1 -32 -10z"/>
<path d="M2520 89 c36 -5 94 -5 130 0 58 8 50 8 -65 8 -115 0 -123 0 -65 -8z"/>
<path d="M3575 60 c-4 -6 15 -10 50 -10 35 0 54 4 50 10 -8 13 -92 13 -100 0z"/>
<path d="M2915 40 c11 -5 43 -9 70 -9 28 0 59 4 70 9 13 6 -11 9 -70 9 -59 0
-83 -3 -70 -9z"/>
<path d="M2585 10 c-4 -6 17 -10 55 -10 38 0 59 4 55 10 -8 13 -102 13 -110 0z"/>
</g>
</svg>
